%
M48
M72
T01C0.0120
T02C0.0200
T03C0.0256
T04C0.0315
T05C0.0400
%
T01
X8325Y6343
X9175Y7205
X9675Y7543
X8675Y7593
X9175Y8143
X9725Y8943
X10175Y8943
X10675Y8043
X11825Y7793
X12175Y7493
X12775Y8093
X12775Y8593
X11925Y8593
X12025Y9093
X12125Y10366
X11906Y10743
X11175Y10393
X10375Y10993
X10025Y10593
X9079Y11093
X6725Y10593
X6175Y10893
X5825Y11193
X5991Y11493
X6825Y12093
X7425Y12793
X6725Y13473
X5975Y12793
X5775Y12443
X8525Y12778
X9175Y12193
X8325Y14543
X9175Y15405
X9675Y15743
X8675Y15793
X9175Y16343
X9725Y17143
X10175Y17143
X10675Y16243
X11825Y15993
X12175Y15693
X13052Y15343
X12775Y16293
X12775Y16793
X11925Y16793
X12025Y17293
X12125Y18566
X11906Y18943
X11175Y18593
X10375Y19193
X10025Y18793
X9079Y19293
X6725Y18793
X6175Y19093
X5825Y19393
X5991Y19693
X6825Y20293
X7425Y20993
X6725Y21673
X5975Y20993
X5775Y20643
X8525Y20978
X9175Y20393
X8325Y22743
X9175Y23605
X9675Y23943
X9175Y24543
X8675Y23993
X7925Y24643
X7075Y25193
X7375Y25443
X7425Y25943
X6725Y25393
X6375Y24743
X5521Y26247
X6175Y27293
X5825Y27593
X5991Y27893
X6725Y26993
X9079Y27493
X10025Y26993
X10375Y27393
X11175Y26793
X11906Y27143
X12125Y26766
X12025Y25493
X11925Y24993
X12775Y24993
X12775Y24493
X12175Y23893
X11825Y24193
X13052Y23543
X14275Y23993
X14452Y24743
X16258Y25343
X16775Y24643
X17425Y24643
X17875Y24916
X18375Y24943
X19525Y25593
X19675Y25293
X19825Y24993
X20525Y25093
X21053Y24891
X21425Y24943
X21425Y25643
X20175Y26343
X19175Y26043
X18475Y26043
X18125Y26043
X18675Y27023
X19075Y27143
X18319Y27252
X16775Y27643
X15675Y27443
X15175Y27343
X14675Y27393
X14175Y27193
X13975Y26843
X14199Y26093
X14175Y27793
X13475Y27693
X12675Y28043
X9175Y28593
X8525Y29178
X7425Y29193
X6825Y28493
X5975Y29193
X5775Y28843
X6725Y29873
X8325Y30943
X9175Y31805
X9675Y32143
X9175Y32743
X8675Y32193
X7925Y32843
X7075Y33393
X7375Y33643
X7425Y34143
X6725Y33593
X6375Y32943
X5521Y34447
X6175Y35493
X5825Y35793
X5991Y36093
X5775Y37043
X5975Y37393
X6725Y38073
X7425Y37393
X6825Y36693
X8525Y37378
X9175Y36793
X9079Y35693
X10025Y35193
X10375Y35593
X11175Y34993
X11906Y35343
X12125Y34966
X12025Y33693
X11925Y33193
X12775Y33193
X12775Y32693
X12175Y32093
X11825Y32393
X13052Y31743
X14275Y32193
X14452Y32943
X16258Y33543
X16775Y32843
X17425Y32843
X17875Y33116
X18375Y33143
X19525Y33793
X19675Y33493
X19825Y33193
X20525Y33293
X21053Y33091
X21425Y33143
X21425Y33843
X20175Y34543
X20575Y35293
X21425Y35443
X19175Y34243
X18475Y34243
X18125Y34243
X18675Y35223
X19075Y35343
X18319Y35452
X16775Y35843
X15675Y35643
X15175Y35543
X14675Y35593
X14175Y35393
X13975Y35043
X14199Y34293
X14175Y35993
X13475Y35893
X12675Y36243
X10175Y33543
X9725Y33543
X10675Y32643
X9637Y31097
X6725Y35193
X16675Y32093
X24521Y34447
X25725Y33593
X26075Y33393
X26375Y33643
X26425Y34143
X25725Y35193
X25175Y35493
X24825Y35793
X24991Y36093
X24775Y37043
X24975Y37393
X25725Y38073
X26425Y37393
X25825Y36693
X27525Y37378
X28175Y36793
X28079Y35693
X29025Y35193
X29375Y35593
X30175Y34993
X30906Y35343
X31125Y34966
X31025Y33693
X30925Y33193
X31775Y33193
X31775Y32693
X31175Y32093
X30825Y32393
X29675Y32643
X28675Y32143
X28175Y31805
X27675Y32193
X28175Y32743
X26925Y32843
X25375Y32943
X27325Y30943
X28637Y31097
X27525Y29178
X28175Y28593
X28079Y27493
X29025Y26993
X29375Y27393
X30175Y26793
X30906Y27143
X31125Y26766
X31025Y25493
X30925Y24993
X31775Y24993
X31775Y24493
X31175Y23893
X30825Y24193
X29675Y24443
X29175Y25343
X28725Y25343
X28175Y24543
X27675Y23993
X28175Y23605
X28675Y23943
X28637Y22897
X27325Y22743
X25725Y21673
X26425Y20993
X25825Y20293
X24991Y19693
X24825Y19393
X25175Y19093
X25725Y18793
X24521Y18047
X25725Y17193
X26075Y16993
X26375Y17243
X26425Y17743
X26925Y16443
X27675Y15793
X28175Y15405
X28675Y15743
X29675Y16243
X30825Y15993
X31175Y15693
X32052Y15343
X33275Y15793
X33452Y16543
X31775Y16293
X31775Y16793
X30925Y16793
X31025Y17293
X31125Y18566
X30906Y18943
X30175Y18593
X29375Y19193
X29025Y18793
X28079Y19293
X28175Y20393
X27525Y20978
X24975Y20993
X24775Y20643
X21425Y19043
X20575Y18893
X20175Y18143
X19525Y17393
X19675Y17093
X19825Y16793
X20525Y16893
X21053Y16691
X21425Y16743
X21425Y17443
X19175Y17843
X18475Y17843
X18125Y17843
X18675Y18823
X19075Y18943
X18319Y19052
X16775Y19443
X15675Y19243
X15175Y19143
X14675Y19193
X14175Y18993
X13975Y18643
X14199Y17893
X16258Y17143
X16775Y16443
X17425Y16443
X17875Y16716
X18375Y16743
X16675Y15693
X14452Y16543
X14275Y15793
X9637Y14697
X7925Y16443
X7375Y17243
X7075Y16993
X6725Y17193
X6375Y16543
X7425Y17743
X5521Y18047
X12675Y19843
X13475Y19493
X14175Y19593
X9637Y22897
X10675Y24443
X10175Y25343
X9725Y25343
X16675Y23893
X20575Y27093
X21425Y27243
X24521Y26247
X25175Y27293
X24825Y27593
X24991Y27893
X25725Y26993
X26425Y25943
X26375Y25443
X26075Y25193
X25725Y25393
X25375Y24743
X26925Y24643
X32052Y23543
X33275Y23993
X33452Y24743
X35258Y25343
X35775Y24643
X36425Y24643
X36875Y24916
X37375Y24943
X37475Y26043
X37125Y26043
X38175Y26043
X38525Y25593
X38675Y25293
X38825Y24993
X39525Y25093
X40053Y24891
X40425Y24943
X40425Y25643
X39175Y26343
X39575Y27093
X40425Y27243
X38075Y27143
X37675Y27023
X37319Y27252
X35775Y27643
X34675Y27443
X34175Y27343
X33675Y27393
X33175Y27193
X32975Y26843
X33199Y26093
X33175Y27793
X32475Y27693
X31675Y28043
X32052Y31743
X33275Y32193
X33452Y32943
X35258Y33543
X35775Y32843
X36425Y32843
X36875Y33116
X37375Y33143
X37475Y34243
X37125Y34243
X38175Y34243
X38525Y33793
X38675Y33493
X38825Y33193
X39525Y33293
X40053Y33091
X40425Y33143
X40425Y33843
X39175Y34543
X39575Y35293
X40425Y35443
X38075Y35343
X37675Y35223
X37319Y35452
X35775Y35843
X34675Y35643
X34175Y35543
X33675Y35593
X33175Y35393
X32975Y35043
X33199Y34293
X33175Y35993
X32475Y35893
X31675Y36243
X29175Y33543
X28725Y33543
X25725Y29873
X26425Y29193
X25825Y28493
X24975Y29193
X24775Y28843
X35675Y32093
X35675Y23893
X31675Y19843
X32475Y19493
X33175Y19593
X33175Y18993
X32975Y18643
X33199Y17893
X33675Y19193
X34175Y19143
X34675Y19243
X35775Y19443
X37319Y19052
X37675Y18823
X38075Y18943
X38175Y17843
X38525Y17393
X38675Y17093
X38825Y16793
X39525Y16893
X40053Y16691
X40425Y16743
X40425Y17443
X39175Y18143
X39575Y18893
X40425Y19043
X37475Y17843
X37125Y17843
X35258Y17143
X35775Y16443
X36425Y16443
X36875Y16716
X37375Y16743
X35675Y15693
X29175Y17143
X28725Y17143
X28175Y16343
X25375Y16543
X27325Y14543
X28637Y14697
X27525Y12778
X28175Y12193
X26425Y12793
X25725Y13473
X24975Y12793
X24775Y12443
X25825Y12093
X24991Y11493
X24825Y11193
X25175Y10893
X25725Y10593
X24521Y9847
X25725Y8993
X26075Y8793
X26375Y9043
X26425Y9543
X26925Y8243
X28175Y8143
X28725Y8943
X29175Y8943
X29675Y8043
X28675Y7543
X28175Y7205
X27675Y7593
X27325Y6343
X28637Y6497
X30825Y7793
X31175Y7493
X31775Y8093
X31775Y8593
X30925Y8593
X31025Y9093
X33199Y9693
X32975Y10443
X33175Y10793
X33675Y10993
X34175Y10943
X34675Y11043
X35775Y11243
X37319Y10852
X37675Y10623
X38075Y10743
X39175Y9943
X38525Y9193
X38675Y8893
X38825Y8593
X39525Y8693
X40053Y8491
X40425Y8543
X40425Y9243
X40425Y10843
X39575Y10693
X38175Y9643
X37475Y9643
X37125Y9643
X37375Y8543
X36875Y8516
X36425Y8243
X35775Y8243
X35258Y8943
X33452Y8343
X33275Y7593
X32052Y7143
X35675Y7493
X31125Y10366
X30906Y10743
X30175Y10393
X29375Y10993
X29025Y10593
X28079Y11093
X31675Y11643
X32475Y11293
X33175Y11393
X25375Y8343
X21425Y8543
X21053Y8491
X20525Y8693
X19825Y8593
X19675Y8893
X19525Y9193
X19175Y9643
X18475Y9643
X18125Y9643
X18675Y10623
X19075Y10743
X18319Y10852
X16775Y11243
X15675Y11043
X15175Y10943
X14675Y10993
X14175Y10793
X13975Y10443
X14199Y9693
X16258Y8943
X16775Y8243
X17425Y8243
X17875Y8516
X18375Y8543
X16675Y7493
X14452Y8343
X14275Y7593
X13052Y7143
X9637Y6497
X7925Y8243
X7375Y9043
X7075Y8793
X6725Y8993
X6375Y8343
X7425Y9543
X5521Y9847
X12675Y11643
X13475Y11293
X14175Y11393
X20175Y9943
X21425Y9243
X21425Y10843
X20575Y10693
T02
X15975Y10693
X15975Y10193
X15975Y9693
X15975Y9193
X15975Y8693
X15475Y8693
X15475Y9193
X15475Y9693
X15475Y10193
X15475Y10693
X15475Y16893
X15975Y16893
X15975Y17393
X15475Y17393
X15475Y17893
X15975Y17893
X15975Y18393
X15475Y18393
X15475Y18893
X15975Y18893
X15975Y25093
X15475Y25093
X15475Y25593
X15975Y25593
X15975Y26093
X15475Y26093
X15475Y26593
X15975Y26593
X15975Y27093
X15475Y27093
X15475Y33293
X15975Y33293
X15975Y33793
X15475Y33793
X15475Y34293
X15975Y34293
X15975Y34793
X15475Y34793
X15475Y35293
X15975Y35293
X34475Y35293
X34475Y34793
X34475Y34293
X34475Y33793
X34475Y33293
X34975Y33293
X34975Y33793
X34975Y34293
X34975Y34793
X34975Y35293
X34975Y27093
X34975Y26593
X34975Y26093
X34975Y25593
X34975Y25093
X34475Y25093
X34475Y25593
X34475Y26093
X34475Y26593
X34475Y27093
X34475Y18893
X34475Y18393
X34475Y17893
X34475Y17393
X34475Y16893
X34975Y16893
X34975Y17393
X34975Y17893
X34975Y18393
X34975Y18893
X34975Y10693
X34975Y10193
X34975Y9693
X34975Y9193
X34975Y8693
X34475Y8693
X34475Y9193
X34475Y9693
X34475Y10193
X34475Y10693
T03
X25606Y10056
X25606Y12331
X25606Y18256
X25606Y20531
X25606Y26456
X25606Y28731
X25606Y34656
X25606Y36931
X6606Y36931
X6606Y34656
X6606Y28731
X6606Y26456
X6606Y20531
X6606Y18256
X6606Y12331
X6606Y10056
T04
X9175Y6300
X9175Y14500
X9175Y22700
X9175Y30900
X28175Y30900
X28175Y22700
X28175Y14500
X28175Y6300
T05
X29175Y6193
X30175Y6193
X30175Y7193
X29175Y7193
X28175Y9193
X28175Y10193
X29175Y12193
X30175Y12193
X31175Y12193
X32175Y12193
X33175Y12193
X33175Y13193
X32175Y13193
X31175Y13193
X30175Y13193
X29175Y13193
X29175Y14393
X30175Y14393
X30175Y15393
X29175Y15393
X28175Y17393
X28175Y18393
X29175Y20393
X30175Y20393
X31175Y20393
X32175Y20393
X33175Y20393
X34175Y20393
X35175Y20393
X36175Y20393
X37175Y20393
X38175Y20393
X39175Y20393
X40175Y20393
X40175Y21393
X39175Y21393
X38175Y21393
X37175Y21393
X36175Y21393
X35175Y21393
X34175Y21393
X33175Y21393
X32175Y21393
X31175Y21393
X30175Y21393
X29175Y21393
X29175Y22593
X30175Y22593
X30175Y23593
X29175Y23593
X28175Y25593
X28175Y26593
X29175Y28593
X30175Y28593
X31175Y28593
X32175Y28593
X33175Y28593
X34175Y28593
X35175Y28593
X36175Y28593
X37175Y28593
X38175Y28593
X39175Y28593
X40175Y28593
X40175Y29593
X39175Y29593
X38175Y29593
X37175Y29593
X36175Y29593
X35175Y29593
X34175Y29593
X33175Y29593
X32175Y29593
X31175Y29593
X30175Y29593
X29175Y29593
X29175Y30793
X30175Y30793
X30175Y31793
X29175Y31793
X28175Y33793
X28175Y34793
X29175Y36793
X30175Y36793
X31175Y36793
X32175Y36793
X33175Y36793
X34175Y36793
X35175Y36793
X36175Y36793
X37175Y36793
X38175Y36793
X39175Y36793
X40175Y36793
X40175Y37793
X39175Y37793
X38175Y37793
X37175Y37793
X36175Y37793
X35175Y37793
X34175Y37793
X33175Y37793
X32175Y37793
X31175Y37793
X30175Y37793
X29175Y37793
X24175Y32543
X24175Y31543
X21175Y31793
X20175Y31793
X19175Y31793
X19175Y30793
X20175Y30793
X21175Y30793
X21175Y29593
X20175Y29593
X19175Y29593
X19175Y28593
X20175Y28593
X21175Y28593
X18175Y28593
X17175Y28593
X16175Y28593
X15175Y28593
X14175Y28593
X13175Y28593
X12175Y28593
X11175Y28593
X10175Y28593
X10175Y29593
X11175Y29593
X12175Y29593
X13175Y29593
X14175Y29593
X15175Y29593
X16175Y29593
X17175Y29593
X18175Y29593
X18175Y30793
X17175Y30793
X16175Y30793
X15175Y30793
X15175Y31793
X16175Y31793
X17175Y31793
X18175Y31793
X11175Y31793
X10175Y31793
X10175Y30793
X11175Y30793
X9175Y33793
X9175Y34793
X10175Y36793
X11175Y36793
X12175Y36793
X13175Y36793
X14175Y36793
X15175Y36793
X16175Y36793
X17175Y36793
X18175Y36793
X19175Y36793
X20175Y36793
X21175Y36793
X21175Y37793
X20175Y37793
X19175Y37793
X18175Y37793
X17175Y37793
X16175Y37793
X15175Y37793
X14175Y37793
X13175Y37793
X12175Y37793
X11175Y37793
X10175Y37793
X5175Y32543
X5175Y31543
X9175Y26593
X9175Y25593
X10175Y23593
X11175Y23593
X11175Y22593
X10175Y22593
X10175Y21393
X11175Y21393
X12175Y21393
X13175Y21393
X13175Y20393
X12175Y20393
X11175Y20393
X10175Y20393
X9175Y18393
X9175Y17393
X10175Y15393
X11175Y15393
X11175Y14393
X10175Y14393
X10175Y13193
X10175Y12193
X11175Y12193
X12175Y12193
X13175Y12193
X13175Y13193
X12175Y13193
X11175Y13193
X14175Y13193
X14175Y12193
X15175Y12193
X16175Y12193
X17175Y12193
X18175Y12193
X18175Y13193
X17175Y13193
X16175Y13193
X15175Y13193
X15175Y14393
X16175Y14393
X17175Y14393
X18175Y14393
X19175Y14393
X20175Y14393
X21175Y14393
X21175Y15393
X20175Y15393
X19175Y15393
X18175Y15393
X17175Y15393
X16175Y15393
X15175Y15393
X19175Y13193
X19175Y12193
X20175Y12193
X21175Y12193
X21175Y13193
X20175Y13193
X24175Y15143
X24175Y16143
X21175Y20393
X20175Y20393
X19175Y20393
X18175Y20393
X17175Y20393
X16175Y20393
X15175Y20393
X14175Y20393
X14175Y21393
X15175Y21393
X16175Y21393
X17175Y21393
X18175Y21393
X19175Y21393
X20175Y21393
X21175Y21393
X21175Y22593
X20175Y22593
X19175Y22593
X18175Y22593
X17175Y22593
X16175Y22593
X15175Y22593
X15175Y23593
X16175Y23593
X17175Y23593
X18175Y23593
X19175Y23593
X20175Y23593
X21175Y23593
X24175Y23343
X24175Y24343
X34175Y23593
X35175Y23593
X36175Y23593
X37175Y23593
X38175Y23593
X38175Y22593
X37175Y22593
X36175Y22593
X35175Y22593
X34175Y22593
X39175Y22593
X40175Y22593
X40175Y23593
X39175Y23593
X39175Y30793
X40175Y30793
X40175Y31793
X39175Y31793
X38175Y31793
X37175Y31793
X36175Y31793
X35175Y31793
X34175Y31793
X34175Y30793
X35175Y30793
X36175Y30793
X37175Y30793
X38175Y30793
X38175Y15393
X37175Y15393
X36175Y15393
X35175Y15393
X34175Y15393
X34175Y14393
X35175Y14393
X36175Y14393
X37175Y14393
X38175Y14393
X39175Y14393
X40175Y14393
X40175Y15393
X39175Y15393
X39175Y13193
X39175Y12193
X40175Y12193
X40175Y13193
X38175Y13193
X38175Y12193
X37175Y12193
X36175Y12193
X35175Y12193
X34175Y12193
X34175Y13193
X35175Y13193
X36175Y13193
X37175Y13193
X37175Y7193
X36175Y7193
X35175Y7193
X34175Y7193
X34175Y6193
X35175Y6193
X36175Y6193
X37175Y6193
X38175Y6193
X39175Y6193
X40175Y6193
X40175Y7193
X39175Y7193
X38175Y7193
X24175Y6943
X24175Y7943
X21175Y7193
X20175Y7193
X19175Y7193
X19175Y6193
X20175Y6193
X21175Y6193
X18175Y6193
X17175Y6193
X16175Y6193
X15175Y6193
X15175Y7193
X16175Y7193
X17175Y7193
X18175Y7193
X11175Y7193
X10175Y7193
X10175Y6193
X11175Y6193
X9175Y9193
X9175Y10193
X5175Y7943
X5175Y6943
X5175Y15143
X5175Y16143
X5175Y23343
X5175Y24343
M30
