%
M48
M72
T01C0.0120
T02C0.0200
T03C0.0256
T04C0.0315
T05C0.0354
T06C0.0400
%
T01
X8425Y6493
X9175Y7205
X9675Y7543
X8675Y7593
X9175Y8143
X9725Y8943
X10175Y8943
X10575Y8043
X11825Y7793
X12175Y7493
X13052Y7143
X14275Y7593
X14452Y8343
X12775Y8093
X12775Y8593
X11925Y8593
X12025Y9093
X12125Y10366
X11906Y10743
X11175Y10393
X10375Y10993
X10025Y10593
X9079Y11093
X9175Y12193
X8525Y12778
X7425Y12793
X6725Y13473
X5975Y12793
X5775Y12443
X6825Y12093
X5991Y11493
X5825Y11193
X6175Y10893
X6725Y10593
X5521Y9847
X6725Y8993
X7525Y9343
X7925Y9043
X7925Y8243
X6375Y8343
X9637Y6497
X14249Y9693
X15061Y9643
X13975Y10493
X13875Y10793
X13475Y11243
X14175Y11393
X15175Y10943
X15675Y11043
X16775Y11443
X18319Y10852
X18675Y10623
X19075Y10843
X20175Y10393
X20266Y10793
X21425Y10843
X19175Y9643
X19425Y9193
X19675Y8943
X19975Y8693
X20375Y8693
X21053Y8491
X21425Y8543
X21425Y9243
X19175Y8843
X18475Y9643
X18125Y9643
X16258Y8943
X16775Y8243
X17425Y8243
X17875Y8516
X16675Y7493
X24521Y9847
X25725Y10593
X25175Y10893
X24825Y11193
X24991Y11493
X25825Y12093
X24775Y12443
X24975Y12793
X25725Y13473
X26425Y12793
X27525Y12778
X28175Y12193
X28079Y11093
X29025Y10593
X29375Y10993
X30175Y10393
X30906Y10743
X31125Y10366
X32475Y11243
X32875Y10793
X32975Y10493
X33249Y9693
X34061Y9643
X35258Y8943
X35775Y8243
X36425Y8243
X36875Y8516
X38175Y8843
X38425Y9193
X38675Y8943
X38975Y8693
X39375Y8693
X40053Y8491
X40425Y8543
X40425Y9243
X39175Y10393
X39266Y10793
X40425Y10843
X38075Y10843
X37675Y10623
X37319Y10852
X35775Y11443
X34675Y11043
X34175Y10943
X33175Y11393
X31625Y11643
X31025Y9093
X30925Y8593
X31775Y8593
X31775Y8093
X31175Y7493
X30825Y7793
X29575Y8043
X28675Y7543
X28175Y7205
X27675Y7593
X28175Y8143
X28725Y8943
X29175Y8943
X26925Y9043
X26525Y9343
X25725Y8993
X25375Y8343
X26925Y8243
X27425Y6493
X28637Y6497
X32052Y7143
X33275Y7593
X33452Y8343
X35675Y7493
X37125Y9643
X37475Y9643
X38175Y9643
X28637Y14697
X28175Y15405
X28675Y15743
X27675Y15793
X28175Y16343
X26925Y16443
X26925Y17243
X26525Y17543
X25725Y17193
X25375Y16543
X24521Y18047
X25175Y19093
X24825Y19393
X24991Y19693
X25825Y20293
X24775Y20643
X24975Y20993
X25725Y21673
X26425Y20993
X27525Y20978
X28175Y20393
X28079Y19293
X29025Y18793
X29375Y19193
X30175Y18593
X30906Y18943
X31125Y18566
X32475Y19443
X32875Y18993
X32975Y18693
X33249Y17893
X34061Y17843
X35258Y17143
X35775Y16443
X36425Y16443
X36875Y16716
X38175Y17043
X38425Y17393
X38675Y17143
X38975Y16893
X39375Y16893
X40053Y16691
X40425Y16743
X40425Y17443
X39175Y18593
X39266Y18993
X40425Y19043
X38075Y19043
X37675Y18823
X37319Y19052
X35775Y19643
X34675Y19243
X34175Y19143
X33175Y19593
X31625Y19843
X31025Y17293
X30925Y16793
X31775Y16793
X31775Y16293
X33275Y15793
X33452Y16543
X32052Y15343
X31175Y15693
X30825Y15993
X29575Y16243
X29175Y17143
X28725Y17143
X25725Y18793
X21425Y19043
X20266Y18993
X20175Y18593
X19075Y19043
X18675Y18823
X18319Y19052
X16775Y19643
X15675Y19243
X15175Y19143
X14175Y19593
X13475Y19443
X13875Y18993
X13975Y18693
X14249Y17893
X15061Y17843
X16258Y17143
X16775Y16443
X17425Y16443
X17875Y16716
X18125Y17843
X18475Y17843
X19175Y17843
X19425Y17393
X19675Y17143
X19975Y16893
X20375Y16893
X21053Y16691
X21425Y16743
X21425Y17443
X19175Y17043
X16675Y15693
X14452Y16543
X14275Y15793
X13052Y15343
X12175Y15693
X11825Y15993
X12775Y16293
X12775Y16793
X11925Y16793
X12025Y17293
X10575Y16243
X9175Y16343
X8675Y15793
X9175Y15405
X9675Y15743
X9637Y14697
X8425Y14693
X7925Y16443
X7925Y17243
X7525Y17543
X6725Y17193
X6375Y16543
X5521Y18047
X6175Y19093
X5825Y19393
X5991Y19693
X6825Y20293
X7425Y20993
X6725Y21673
X5975Y20993
X5775Y20643
X6725Y18793
X9079Y19293
X10025Y18793
X10375Y19193
X11175Y18593
X11906Y18943
X12125Y18566
X12625Y19843
X9175Y20393
X8525Y20978
X8425Y22893
X9637Y22897
X9175Y23605
X9675Y23943
X9175Y24543
X8675Y23993
X7925Y24643
X7925Y25443
X7525Y25743
X6725Y25393
X6375Y24743
X5521Y26247
X6725Y26993
X6175Y27293
X5825Y27593
X5991Y27893
X6825Y28493
X7425Y29193
X5975Y29193
X5775Y28843
X6725Y29873
X8525Y29178
X9175Y28593
X9079Y27493
X10025Y26993
X10375Y27393
X11175Y26793
X11906Y27143
X12125Y26766
X13475Y27643
X13875Y27193
X13975Y26893
X14249Y26093
X15061Y26043
X16258Y25343
X16775Y24643
X17425Y24643
X17875Y24916
X19175Y25243
X19425Y25593
X19675Y25343
X19975Y25093
X20375Y25093
X21053Y24891
X21425Y24943
X21425Y25643
X20175Y26793
X20266Y27193
X21425Y27243
X19175Y26043
X18475Y26043
X18125Y26043
X18675Y27023
X18319Y27252
X19075Y27243
X16775Y27843
X15675Y27443
X15175Y27343
X14175Y27793
X12625Y28043
X12025Y25493
X11925Y24993
X12775Y24993
X12775Y24493
X12175Y23893
X11825Y24193
X13052Y23543
X14275Y23993
X14452Y24743
X16675Y23893
X10575Y24443
X10175Y25343
X9725Y25343
X24521Y26247
X25725Y26993
X25175Y27293
X24825Y27593
X24991Y27893
X25825Y28493
X24775Y28843
X24975Y29193
X25725Y29873
X26425Y29193
X27525Y29178
X28175Y28593
X28079Y27493
X29025Y26993
X29375Y27393
X30175Y26793
X30906Y27143
X31125Y26766
X32475Y27643
X32875Y27193
X32975Y26893
X33249Y26093
X34061Y26043
X35258Y25343
X35775Y24643
X36425Y24643
X36875Y24916
X38175Y25243
X38425Y25593
X38675Y25343
X38975Y25093
X39375Y25093
X40053Y24891
X40425Y24943
X40425Y25643
X39175Y26793
X39266Y27193
X40425Y27243
X38075Y27243
X37675Y27023
X37319Y27252
X37475Y26043
X37125Y26043
X38175Y26043
X35775Y27843
X34675Y27443
X34175Y27343
X33175Y27793
X31625Y28043
X31025Y25493
X30925Y24993
X31775Y24993
X31775Y24493
X31175Y23893
X30825Y24193
X29575Y24443
X28675Y23943
X28175Y23605
X27675Y23993
X28175Y24543
X26925Y24643
X26925Y25443
X26525Y25743
X25725Y25393
X25375Y24743
X28725Y25343
X29175Y25343
X32052Y23543
X33275Y23993
X33452Y24743
X35675Y23893
X28637Y22897
X27425Y22893
X37125Y17843
X37475Y17843
X38175Y17843
X35675Y15693
X27425Y14693
X12625Y11643
X10175Y17143
X9725Y17143
T02
X15475Y16893
X15975Y16893
X15975Y17393
X15475Y17393
X15475Y17893
X15975Y17893
X15975Y18393
X15475Y18393
X15475Y18893
X15975Y18893
X15975Y25093
X15475Y25093
X15475Y25593
X15975Y25593
X15975Y26093
X15475Y26093
X15475Y26593
X15975Y26593
X15975Y27093
X15475Y27093
X34475Y27093
X34475Y26593
X34475Y26093
X34475Y25593
X34975Y25593
X34975Y26093
X34975Y26593
X34975Y27093
X34975Y25093
X34475Y25093
X34475Y18893
X34475Y18393
X34475Y17893
X34975Y17893
X34975Y18393
X34975Y18893
X34975Y17393
X34975Y16893
X34475Y16893
X34475Y17393
X34475Y10693
X34975Y10693
X34975Y10193
X34975Y9693
X34975Y9193
X34975Y8693
X34475Y8693
X34475Y9193
X34475Y9693
X34475Y10193
X15975Y10193
X15975Y9693
X15975Y9193
X15975Y8693
X15475Y8693
X15475Y9193
X15475Y9693
X15475Y10193
X15475Y10693
X15975Y10693
T03
X25606Y10056
X25606Y12331
X25606Y18256
X25606Y20531
X25606Y26456
X25606Y28731
X6606Y28731
X6606Y26456
X6606Y20531
X6606Y18256
X6606Y12331
X6606Y10056
T04
X9175Y6300
X9175Y14500
X9175Y22700
X28175Y22700
X28175Y14500
X28175Y6300
T05
X28175Y9103
X28175Y10284
X28175Y17303
X28175Y18484
X28175Y25503
X28175Y26684
X9175Y26684
X9175Y25503
X9175Y18484
X9175Y17303
X9175Y10284
X9175Y9103
T06
X10175Y7193
X11175Y7193
X11175Y6193
X10175Y6193
X15175Y6193
X16175Y6193
X17175Y6193
X18175Y6193
X19175Y6193
X20175Y6193
X21175Y6193
X21175Y7193
X20175Y7193
X19175Y7193
X18175Y7193
X17175Y7193
X16175Y7193
X15175Y7193
X24175Y6943
X24175Y7943
X29175Y7193
X30175Y7193
X30175Y6193
X29175Y6193
X34175Y6193
X35175Y6193
X36175Y6193
X37175Y6193
X38175Y6193
X39175Y6193
X40175Y6193
X40175Y7193
X39175Y7193
X38175Y7193
X37175Y7193
X36175Y7193
X35175Y7193
X34175Y7193
X34175Y12193
X35175Y12193
X36175Y12193
X37175Y12193
X38175Y12193
X39175Y12193
X40175Y12193
X40175Y13193
X39175Y13193
X38175Y13193
X37175Y13193
X36175Y13193
X35175Y13193
X34175Y13193
X33175Y13193
X32175Y13193
X31175Y13193
X30175Y13193
X29175Y13193
X29175Y12193
X30175Y12193
X31175Y12193
X32175Y12193
X33175Y12193
X34175Y14393
X35175Y14393
X36175Y14393
X37175Y14393
X38175Y14393
X39175Y14393
X40175Y14393
X40175Y15393
X39175Y15393
X38175Y15393
X37175Y15393
X36175Y15393
X35175Y15393
X34175Y15393
X30175Y15393
X29175Y15393
X29175Y14393
X30175Y14393
X24175Y15143
X24175Y16143
X21175Y15393
X20175Y15393
X19175Y15393
X18175Y15393
X17175Y15393
X16175Y15393
X15175Y15393
X15175Y14393
X16175Y14393
X17175Y14393
X18175Y14393
X19175Y14393
X20175Y14393
X21175Y14393
X21175Y13193
X20175Y13193
X19175Y13193
X19175Y12193
X20175Y12193
X21175Y12193
X18175Y12193
X17175Y12193
X16175Y12193
X15175Y12193
X14175Y12193
X13175Y12193
X12175Y12193
X11175Y12193
X10175Y12193
X10175Y13193
X11175Y13193
X12175Y13193
X13175Y13193
X14175Y13193
X15175Y13193
X16175Y13193
X17175Y13193
X18175Y13193
X11175Y14393
X10175Y14393
X10175Y15393
X11175Y15393
X5175Y15143
X5175Y16143
X10175Y20393
X11175Y20393
X12175Y20393
X13175Y20393
X14175Y20393
X15175Y20393
X16175Y20393
X17175Y20393
X18175Y20393
X19175Y20393
X20175Y20393
X21175Y20393
X21175Y21393
X20175Y21393
X19175Y21393
X18175Y21393
X17175Y21393
X16175Y21393
X15175Y21393
X14175Y21393
X13175Y21393
X12175Y21393
X11175Y21393
X10175Y21393
X10175Y22593
X11175Y22593
X11175Y23593
X10175Y23593
X15175Y23593
X16175Y23593
X17175Y23593
X18175Y23593
X18175Y22593
X17175Y22593
X16175Y22593
X15175Y22593
X19175Y22593
X20175Y22593
X21175Y22593
X21175Y23593
X20175Y23593
X19175Y23593
X24175Y23343
X24175Y24343
X29175Y23593
X30175Y23593
X30175Y22593
X29175Y22593
X29175Y21393
X30175Y21393
X31175Y21393
X32175Y21393
X33175Y21393
X34175Y21393
X35175Y21393
X36175Y21393
X37175Y21393
X38175Y21393
X39175Y21393
X40175Y21393
X40175Y20393
X39175Y20393
X38175Y20393
X37175Y20393
X36175Y20393
X35175Y20393
X34175Y20393
X33175Y20393
X32175Y20393
X31175Y20393
X30175Y20393
X29175Y20393
X34175Y22593
X35175Y22593
X36175Y22593
X37175Y22593
X38175Y22593
X39175Y22593
X40175Y22593
X40175Y23593
X39175Y23593
X38175Y23593
X37175Y23593
X36175Y23593
X35175Y23593
X34175Y23593
X34175Y28593
X35175Y28593
X36175Y28593
X37175Y28593
X38175Y28593
X39175Y28593
X40175Y28593
X40175Y29593
X39175Y29593
X38175Y29593
X37175Y29593
X36175Y29593
X35175Y29593
X34175Y29593
X33175Y29593
X32175Y29593
X31175Y29593
X30175Y29593
X29175Y29593
X29175Y28593
X30175Y28593
X31175Y28593
X32175Y28593
X33175Y28593
X21175Y28593
X20175Y28593
X19175Y28593
X18175Y28593
X17175Y28593
X16175Y28593
X15175Y28593
X14175Y28593
X13175Y28593
X12175Y28593
X11175Y28593
X10175Y28593
X10175Y29593
X11175Y29593
X12175Y29593
X13175Y29593
X14175Y29593
X15175Y29593
X16175Y29593
X17175Y29593
X18175Y29593
X19175Y29593
X20175Y29593
X21175Y29593
X5175Y24343
X5175Y23343
X5175Y7943
X5175Y6943
M30
