G75*
%MOIN*%
%OFA0B0*%
%FSLAX25Y25*%
%IPPOS*%
%LPD*%
%AMOC8*
5,1,8,0,0,1.08239X$1,22.5*
%
%ADD10R,0.04331X0.03937*%
%ADD11R,0.02165X0.04724*%
%ADD12R,0.02480X0.03268*%
%ADD13R,0.03937X0.04331*%
%ADD14R,0.02362X0.02362*%
%ADD15R,0.03937X0.07087*%
%ADD16R,0.00984X0.03445*%
%ADD17R,0.02854X0.02055*%
%ADD18R,0.01969X0.00787*%
%ADD19C,0.00197*%
%ADD20R,0.00787X0.01969*%
D10*
X0131904Y0080933D03*
X0138596Y0080933D03*
X0138596Y0086433D03*
X0131904Y0086433D03*
X0115096Y0086433D03*
X0108404Y0086433D03*
X0085096Y0091933D03*
X0085096Y0096933D03*
X0085096Y0101933D03*
X0085096Y0106933D03*
X0085096Y0111933D03*
X0085096Y0116933D03*
X0085096Y0122933D03*
X0078404Y0122933D03*
X0078404Y0116933D03*
X0078404Y0111933D03*
X0078404Y0106933D03*
X0078404Y0101933D03*
X0078404Y0096933D03*
X0078404Y0091933D03*
X0063096Y0089933D03*
X0056404Y0089933D03*
X0108404Y0107433D03*
X0108404Y0112433D03*
X0115096Y0112433D03*
X0115096Y0107433D03*
X0123404Y0107433D03*
X0123404Y0112433D03*
X0130096Y0112433D03*
X0130096Y0107433D03*
X0180404Y0088933D03*
X0187096Y0088933D03*
X0246404Y0089933D03*
X0253096Y0089933D03*
X0268404Y0091933D03*
X0268404Y0096933D03*
X0268404Y0101933D03*
X0268404Y0106933D03*
X0268404Y0111933D03*
X0268404Y0116933D03*
X0268404Y0122933D03*
X0275096Y0122933D03*
X0275096Y0116933D03*
X0275096Y0111933D03*
X0275096Y0106933D03*
X0275096Y0101933D03*
X0275096Y0096933D03*
X0275096Y0091933D03*
X0298404Y0086433D03*
X0305096Y0086433D03*
X0321904Y0086433D03*
X0328596Y0086433D03*
X0328596Y0080933D03*
X0321904Y0080933D03*
X0320096Y0107433D03*
X0320096Y0112433D03*
X0313404Y0112433D03*
X0313404Y0107433D03*
X0305096Y0107433D03*
X0305096Y0112433D03*
X0298404Y0112433D03*
X0298404Y0107433D03*
X0253096Y0133933D03*
X0246404Y0133933D03*
X0246404Y0171933D03*
X0253096Y0171933D03*
X0268404Y0173933D03*
X0268404Y0178933D03*
X0268404Y0183933D03*
X0268404Y0188933D03*
X0268404Y0193933D03*
X0268404Y0198933D03*
X0268404Y0204933D03*
X0275096Y0204933D03*
X0275096Y0198933D03*
X0275096Y0193933D03*
X0275096Y0188933D03*
X0275096Y0183933D03*
X0275096Y0178933D03*
X0275096Y0173933D03*
X0298404Y0168433D03*
X0305096Y0168433D03*
X0321904Y0168433D03*
X0321904Y0162933D03*
X0328596Y0162933D03*
X0328596Y0168433D03*
X0320096Y0189433D03*
X0320096Y0194433D03*
X0313404Y0194433D03*
X0313404Y0189433D03*
X0305096Y0189433D03*
X0305096Y0194433D03*
X0298404Y0194433D03*
X0298404Y0189433D03*
X0253096Y0215933D03*
X0246404Y0215933D03*
X0246404Y0253933D03*
X0253096Y0253933D03*
X0268404Y0255933D03*
X0268404Y0260933D03*
X0268404Y0265933D03*
X0268404Y0270933D03*
X0268404Y0275933D03*
X0268404Y0280933D03*
X0268404Y0286933D03*
X0275096Y0286933D03*
X0275096Y0280933D03*
X0275096Y0275933D03*
X0275096Y0270933D03*
X0275096Y0265933D03*
X0275096Y0260933D03*
X0275096Y0255933D03*
X0298404Y0250433D03*
X0305096Y0250433D03*
X0321904Y0250433D03*
X0321904Y0244933D03*
X0328596Y0244933D03*
X0328596Y0250433D03*
X0320096Y0271433D03*
X0320096Y0276433D03*
X0313404Y0276433D03*
X0313404Y0271433D03*
X0305096Y0271433D03*
X0305096Y0276433D03*
X0298404Y0276433D03*
X0298404Y0271433D03*
X0253096Y0297933D03*
X0246404Y0297933D03*
X0298404Y0332433D03*
X0305096Y0332433D03*
X0321904Y0332433D03*
X0321904Y0326933D03*
X0328596Y0326933D03*
X0328596Y0332433D03*
X0320096Y0353433D03*
X0320096Y0358433D03*
X0313404Y0358433D03*
X0313404Y0353433D03*
X0305096Y0353433D03*
X0305096Y0358433D03*
X0298404Y0358433D03*
X0298404Y0353433D03*
X0275096Y0352933D03*
X0275096Y0347933D03*
X0275096Y0342933D03*
X0275096Y0337933D03*
X0268404Y0337933D03*
X0268404Y0342933D03*
X0268404Y0347933D03*
X0268404Y0352933D03*
X0268404Y0357933D03*
X0268404Y0362933D03*
X0268404Y0368933D03*
X0275096Y0368933D03*
X0275096Y0362933D03*
X0275096Y0357933D03*
X0253096Y0335933D03*
X0246404Y0335933D03*
X0187096Y0334933D03*
X0180404Y0334933D03*
X0138596Y0332433D03*
X0138596Y0326933D03*
X0131904Y0326933D03*
X0131904Y0332433D03*
X0115096Y0332433D03*
X0108404Y0332433D03*
X0085096Y0337933D03*
X0085096Y0342933D03*
X0085096Y0347933D03*
X0085096Y0352933D03*
X0085096Y0357933D03*
X0085096Y0362933D03*
X0085096Y0368933D03*
X0078404Y0368933D03*
X0078404Y0362933D03*
X0078404Y0357933D03*
X0078404Y0352933D03*
X0078404Y0347933D03*
X0078404Y0342933D03*
X0078404Y0337933D03*
X0063096Y0335933D03*
X0056404Y0335933D03*
X0108404Y0353433D03*
X0108404Y0358433D03*
X0115096Y0358433D03*
X0115096Y0353433D03*
X0123404Y0353433D03*
X0123404Y0358433D03*
X0130096Y0358433D03*
X0130096Y0353433D03*
X0063096Y0379933D03*
X0056404Y0379933D03*
X0056404Y0297933D03*
X0063096Y0297933D03*
X0078404Y0286933D03*
X0078404Y0280933D03*
X0078404Y0275933D03*
X0078404Y0270933D03*
X0078404Y0265933D03*
X0078404Y0260933D03*
X0078404Y0255933D03*
X0085096Y0255933D03*
X0085096Y0260933D03*
X0085096Y0265933D03*
X0085096Y0270933D03*
X0085096Y0275933D03*
X0085096Y0280933D03*
X0085096Y0286933D03*
X0108404Y0276433D03*
X0108404Y0271433D03*
X0115096Y0271433D03*
X0115096Y0276433D03*
X0123404Y0276433D03*
X0123404Y0271433D03*
X0130096Y0271433D03*
X0130096Y0276433D03*
X0131904Y0250433D03*
X0131904Y0244933D03*
X0138596Y0244933D03*
X0138596Y0250433D03*
X0115096Y0250433D03*
X0108404Y0250433D03*
X0063096Y0253933D03*
X0056404Y0253933D03*
X0056404Y0215933D03*
X0063096Y0215933D03*
X0078404Y0204933D03*
X0078404Y0198933D03*
X0078404Y0193933D03*
X0078404Y0188933D03*
X0078404Y0183933D03*
X0078404Y0178933D03*
X0078404Y0173933D03*
X0085096Y0173933D03*
X0085096Y0178933D03*
X0085096Y0183933D03*
X0085096Y0188933D03*
X0085096Y0193933D03*
X0085096Y0198933D03*
X0085096Y0204933D03*
X0108404Y0194433D03*
X0108404Y0189433D03*
X0115096Y0189433D03*
X0115096Y0194433D03*
X0123404Y0194433D03*
X0123404Y0189433D03*
X0130096Y0189433D03*
X0130096Y0194433D03*
X0131904Y0168433D03*
X0131904Y0162933D03*
X0138596Y0162933D03*
X0138596Y0168433D03*
X0115096Y0168433D03*
X0108404Y0168433D03*
X0063096Y0171933D03*
X0056404Y0171933D03*
X0056404Y0133933D03*
X0063096Y0133933D03*
X0180404Y0170933D03*
X0187096Y0170933D03*
X0187096Y0252933D03*
X0180404Y0252933D03*
X0370404Y0252933D03*
X0377096Y0252933D03*
X0377096Y0170933D03*
X0370404Y0170933D03*
X0370404Y0088933D03*
X0377096Y0088933D03*
X0377096Y0334933D03*
X0370404Y0334933D03*
X0253096Y0379933D03*
X0246404Y0379933D03*
D11*
X0298010Y0348052D03*
X0305490Y0348052D03*
X0305490Y0337815D03*
X0301750Y0337815D03*
X0298010Y0337815D03*
X0333010Y0337815D03*
X0340490Y0337815D03*
X0340490Y0348052D03*
X0336750Y0348052D03*
X0333010Y0348052D03*
X0333010Y0266052D03*
X0336750Y0266052D03*
X0340490Y0266052D03*
X0340490Y0255815D03*
X0333010Y0255815D03*
X0305490Y0255815D03*
X0301750Y0255815D03*
X0298010Y0255815D03*
X0298010Y0266052D03*
X0305490Y0266052D03*
X0305490Y0184052D03*
X0298010Y0184052D03*
X0298010Y0173815D03*
X0301750Y0173815D03*
X0305490Y0173815D03*
X0333010Y0173815D03*
X0340490Y0173815D03*
X0340490Y0184052D03*
X0336750Y0184052D03*
X0333010Y0184052D03*
X0333010Y0102052D03*
X0336750Y0102052D03*
X0340490Y0102052D03*
X0340490Y0091815D03*
X0333010Y0091815D03*
X0305490Y0091815D03*
X0301750Y0091815D03*
X0298010Y0091815D03*
X0298010Y0102052D03*
X0305490Y0102052D03*
X0150490Y0102052D03*
X0146750Y0102052D03*
X0143010Y0102052D03*
X0143010Y0091815D03*
X0150490Y0091815D03*
X0115490Y0091815D03*
X0111750Y0091815D03*
X0108010Y0091815D03*
X0108010Y0102052D03*
X0115490Y0102052D03*
X0115490Y0173815D03*
X0111750Y0173815D03*
X0108010Y0173815D03*
X0108010Y0184052D03*
X0115490Y0184052D03*
X0143010Y0184052D03*
X0146750Y0184052D03*
X0150490Y0184052D03*
X0150490Y0173815D03*
X0143010Y0173815D03*
X0143010Y0255815D03*
X0150490Y0255815D03*
X0150490Y0266052D03*
X0146750Y0266052D03*
X0143010Y0266052D03*
X0115490Y0266052D03*
X0108010Y0266052D03*
X0108010Y0255815D03*
X0111750Y0255815D03*
X0115490Y0255815D03*
X0115490Y0337815D03*
X0111750Y0337815D03*
X0108010Y0337815D03*
X0108010Y0348052D03*
X0115490Y0348052D03*
X0143010Y0348052D03*
X0146750Y0348052D03*
X0150490Y0348052D03*
X0150490Y0337815D03*
X0143010Y0337815D03*
D12*
X0136278Y0337933D03*
X0127222Y0337933D03*
X0127222Y0347933D03*
X0136278Y0347933D03*
X0136278Y0265933D03*
X0127222Y0265933D03*
X0127222Y0255933D03*
X0136278Y0255933D03*
X0136278Y0183933D03*
X0127222Y0183933D03*
X0127222Y0173933D03*
X0136278Y0173933D03*
X0136278Y0101933D03*
X0127222Y0101933D03*
X0127222Y0091933D03*
X0136278Y0091933D03*
X0317222Y0091933D03*
X0326278Y0091933D03*
X0326278Y0101933D03*
X0317222Y0101933D03*
X0317222Y0173933D03*
X0326278Y0173933D03*
X0326278Y0183933D03*
X0317222Y0183933D03*
X0317222Y0255933D03*
X0326278Y0255933D03*
X0326278Y0265933D03*
X0317222Y0265933D03*
X0317222Y0337933D03*
X0326278Y0337933D03*
X0326278Y0347933D03*
X0317222Y0347933D03*
D13*
X0291750Y0346280D03*
X0291750Y0339587D03*
X0261750Y0354587D03*
X0261750Y0361280D03*
X0240250Y0361280D03*
X0240250Y0354587D03*
X0196750Y0351280D03*
X0196750Y0344587D03*
X0177250Y0344587D03*
X0177250Y0351280D03*
X0101750Y0346280D03*
X0101750Y0339587D03*
X0071750Y0354587D03*
X0071750Y0361280D03*
X0050250Y0361280D03*
X0050250Y0354587D03*
X0050250Y0279280D03*
X0050250Y0272587D03*
X0071750Y0272587D03*
X0071750Y0279280D03*
X0101750Y0264280D03*
X0101750Y0257587D03*
X0177250Y0262587D03*
X0177250Y0269280D03*
X0196750Y0269280D03*
X0196750Y0262587D03*
X0240250Y0272587D03*
X0240250Y0279280D03*
X0261750Y0279280D03*
X0261750Y0272587D03*
X0291750Y0264280D03*
X0291750Y0257587D03*
X0367250Y0262587D03*
X0367250Y0269280D03*
X0386750Y0269280D03*
X0386750Y0262587D03*
X0386750Y0187280D03*
X0386750Y0180587D03*
X0367250Y0180587D03*
X0367250Y0187280D03*
X0291750Y0182280D03*
X0291750Y0175587D03*
X0261750Y0190587D03*
X0261750Y0197280D03*
X0240250Y0197280D03*
X0240250Y0190587D03*
X0196750Y0187280D03*
X0196750Y0180587D03*
X0177250Y0180587D03*
X0177250Y0187280D03*
X0101750Y0182280D03*
X0101750Y0175587D03*
X0071750Y0190587D03*
X0071750Y0197280D03*
X0050250Y0197280D03*
X0050250Y0190587D03*
X0050250Y0115280D03*
X0050250Y0108587D03*
X0071750Y0108587D03*
X0071750Y0115280D03*
X0101750Y0100280D03*
X0101750Y0093587D03*
X0177250Y0098587D03*
X0177250Y0105280D03*
X0196750Y0105280D03*
X0196750Y0098587D03*
X0240250Y0108587D03*
X0240250Y0115280D03*
X0261750Y0115280D03*
X0261750Y0108587D03*
X0291750Y0100280D03*
X0291750Y0093587D03*
X0367250Y0098587D03*
X0367250Y0105280D03*
X0386750Y0105280D03*
X0386750Y0098587D03*
X0386750Y0344587D03*
X0386750Y0351280D03*
X0367250Y0351280D03*
X0367250Y0344587D03*
D14*
X0365750Y0338402D03*
X0362250Y0338402D03*
X0362250Y0334465D03*
X0365750Y0334465D03*
X0338719Y0332933D03*
X0334781Y0332933D03*
X0334781Y0352933D03*
X0338719Y0352933D03*
X0283719Y0322933D03*
X0279781Y0322933D03*
X0334781Y0270933D03*
X0338719Y0270933D03*
X0362250Y0256402D03*
X0365750Y0256402D03*
X0365750Y0252465D03*
X0362250Y0252465D03*
X0338719Y0250933D03*
X0334781Y0250933D03*
X0283719Y0240933D03*
X0279781Y0240933D03*
X0334781Y0188933D03*
X0338719Y0188933D03*
X0362250Y0174402D03*
X0365750Y0174402D03*
X0365750Y0170465D03*
X0362250Y0170465D03*
X0338719Y0168933D03*
X0334781Y0168933D03*
X0283719Y0158933D03*
X0279781Y0158933D03*
X0334781Y0106933D03*
X0338719Y0106933D03*
X0362250Y0092402D03*
X0365750Y0092402D03*
X0365750Y0088465D03*
X0362250Y0088465D03*
X0338719Y0086933D03*
X0334781Y0086933D03*
X0283719Y0076933D03*
X0279781Y0076933D03*
X0175750Y0088465D03*
X0172250Y0088465D03*
X0172250Y0092402D03*
X0175750Y0092402D03*
X0148719Y0086933D03*
X0144781Y0086933D03*
X0144781Y0106933D03*
X0148719Y0106933D03*
X0093719Y0076933D03*
X0089781Y0076933D03*
X0089781Y0158933D03*
X0093719Y0158933D03*
X0144781Y0168933D03*
X0148719Y0168933D03*
X0172250Y0170465D03*
X0175750Y0170465D03*
X0175750Y0174402D03*
X0172250Y0174402D03*
X0148719Y0188933D03*
X0144781Y0188933D03*
X0093719Y0240933D03*
X0089781Y0240933D03*
X0144781Y0250933D03*
X0148719Y0250933D03*
X0172250Y0252465D03*
X0175750Y0252465D03*
X0175750Y0256402D03*
X0172250Y0256402D03*
X0148719Y0270933D03*
X0144781Y0270933D03*
X0093719Y0322933D03*
X0089781Y0322933D03*
X0144781Y0332933D03*
X0148719Y0332933D03*
X0172250Y0334465D03*
X0175750Y0334465D03*
X0175750Y0338402D03*
X0172250Y0338402D03*
X0148719Y0352933D03*
X0144781Y0352933D03*
D15*
X0181829Y0347933D03*
X0191671Y0347933D03*
X0191671Y0265933D03*
X0181829Y0265933D03*
X0181829Y0183933D03*
X0191671Y0183933D03*
X0191671Y0101933D03*
X0181829Y0101933D03*
X0371829Y0101933D03*
X0381671Y0101933D03*
X0381671Y0183933D03*
X0371829Y0183933D03*
X0371829Y0265933D03*
X0381671Y0265933D03*
X0381671Y0347933D03*
X0371829Y0347933D03*
D16*
X0253687Y0349813D03*
X0251719Y0349813D03*
X0249750Y0349813D03*
X0247781Y0349813D03*
X0245813Y0349813D03*
X0245813Y0366053D03*
X0247781Y0366053D03*
X0249750Y0366053D03*
X0251719Y0366053D03*
X0253687Y0366053D03*
X0253687Y0284053D03*
X0251719Y0284053D03*
X0249750Y0284053D03*
X0247781Y0284053D03*
X0245813Y0284053D03*
X0245813Y0267813D03*
X0247781Y0267813D03*
X0249750Y0267813D03*
X0251719Y0267813D03*
X0253687Y0267813D03*
X0253687Y0202053D03*
X0251719Y0202053D03*
X0249750Y0202053D03*
X0247781Y0202053D03*
X0245813Y0202053D03*
X0245813Y0185813D03*
X0247781Y0185813D03*
X0249750Y0185813D03*
X0251719Y0185813D03*
X0253687Y0185813D03*
X0253687Y0120053D03*
X0251719Y0120053D03*
X0249750Y0120053D03*
X0247781Y0120053D03*
X0245813Y0120053D03*
X0245813Y0103813D03*
X0247781Y0103813D03*
X0249750Y0103813D03*
X0251719Y0103813D03*
X0253687Y0103813D03*
X0063687Y0103813D03*
X0061719Y0103813D03*
X0059750Y0103813D03*
X0057781Y0103813D03*
X0055813Y0103813D03*
X0055813Y0120053D03*
X0057781Y0120053D03*
X0059750Y0120053D03*
X0061719Y0120053D03*
X0063687Y0120053D03*
X0063687Y0185813D03*
X0061719Y0185813D03*
X0059750Y0185813D03*
X0057781Y0185813D03*
X0055813Y0185813D03*
X0055813Y0202053D03*
X0057781Y0202053D03*
X0059750Y0202053D03*
X0061719Y0202053D03*
X0063687Y0202053D03*
X0063687Y0267813D03*
X0061719Y0267813D03*
X0059750Y0267813D03*
X0057781Y0267813D03*
X0055813Y0267813D03*
X0055813Y0284053D03*
X0057781Y0284053D03*
X0059750Y0284053D03*
X0061719Y0284053D03*
X0063687Y0284053D03*
X0063687Y0349813D03*
X0061719Y0349813D03*
X0059750Y0349813D03*
X0057781Y0349813D03*
X0055813Y0349813D03*
X0055813Y0366053D03*
X0057781Y0366053D03*
X0059750Y0366053D03*
X0061719Y0366053D03*
X0063687Y0366053D03*
D17*
X0088207Y0318051D03*
X0088207Y0314114D03*
X0095293Y0314114D03*
X0095293Y0318051D03*
X0095293Y0236051D03*
X0095293Y0232114D03*
X0088207Y0232114D03*
X0088207Y0236051D03*
X0088207Y0154051D03*
X0088207Y0150114D03*
X0095293Y0150114D03*
X0095293Y0154051D03*
X0095293Y0072051D03*
X0095293Y0068114D03*
X0088207Y0068114D03*
X0088207Y0072051D03*
X0278207Y0072051D03*
X0278207Y0068114D03*
X0285293Y0068114D03*
X0285293Y0072051D03*
X0285293Y0150114D03*
X0285293Y0154051D03*
X0278207Y0154051D03*
X0278207Y0150114D03*
X0278207Y0232114D03*
X0278207Y0236051D03*
X0285293Y0236051D03*
X0285293Y0232114D03*
X0285293Y0314114D03*
X0285293Y0318051D03*
X0278207Y0318051D03*
X0278207Y0314114D03*
D18*
X0281750Y0311555D03*
X0281750Y0306437D03*
X0281750Y0229555D03*
X0281750Y0224437D03*
X0281750Y0147555D03*
X0281750Y0142437D03*
X0281750Y0065555D03*
X0281750Y0060437D03*
X0091750Y0060437D03*
X0091750Y0065555D03*
X0091750Y0142437D03*
X0091750Y0147555D03*
X0091750Y0224437D03*
X0091750Y0229555D03*
X0091750Y0306437D03*
X0091750Y0311555D03*
D19*
X0090569Y0061244D02*
X0090018Y0060429D01*
X0090554Y0060130D01*
X0091139Y0059945D01*
X0091750Y0059883D01*
X0092361Y0059945D01*
X0092946Y0060130D01*
X0093482Y0060429D01*
X0092931Y0061244D01*
X0092566Y0061040D01*
X0092166Y0060914D01*
X0091750Y0060872D01*
X0091334Y0060914D01*
X0090934Y0061040D01*
X0090569Y0061244D01*
X0090934Y0061040D01*
X0091334Y0060914D01*
X0091750Y0060872D01*
X0092166Y0060914D01*
X0092566Y0061040D01*
X0092931Y0061244D01*
X0093482Y0060429D01*
X0092946Y0060130D01*
X0092361Y0059945D01*
X0091750Y0059883D01*
X0091139Y0059945D01*
X0090554Y0060130D01*
X0090018Y0060429D01*
X0090569Y0061244D01*
X0090934Y0061040D01*
X0091334Y0060914D01*
X0091750Y0060872D01*
X0092166Y0060914D01*
X0092566Y0061040D01*
X0092931Y0061244D01*
X0093482Y0060429D01*
X0092946Y0060130D01*
X0092361Y0059945D01*
X0091750Y0059883D01*
X0091139Y0059945D01*
X0090554Y0060130D01*
X0090018Y0060429D01*
X0090569Y0061244D01*
X0090934Y0061040D01*
X0091334Y0060914D01*
X0091750Y0060872D01*
X0092166Y0060914D01*
X0092566Y0061040D01*
X0092931Y0061244D01*
X0093482Y0060429D01*
X0092946Y0060130D01*
X0092361Y0059945D01*
X0091750Y0059883D01*
X0091139Y0059945D01*
X0090554Y0060130D01*
X0090018Y0060429D01*
X0090569Y0061244D01*
X0090934Y0061040D01*
X0091334Y0060914D01*
X0091750Y0060872D01*
X0092166Y0060914D01*
X0092566Y0061040D01*
X0092931Y0061244D01*
X0093482Y0060429D01*
X0092946Y0060130D01*
X0092361Y0059945D01*
X0091750Y0059883D01*
X0091139Y0059945D01*
X0090554Y0060130D01*
X0090018Y0060429D01*
X0090569Y0061244D01*
X0090934Y0061040D01*
X0091334Y0060914D01*
X0091750Y0060872D01*
X0092166Y0060914D01*
X0092566Y0061040D01*
X0092931Y0061244D01*
X0093482Y0060429D01*
X0092946Y0060130D01*
X0092361Y0059945D01*
X0091750Y0059883D01*
X0091139Y0059945D01*
X0090554Y0060130D01*
X0090018Y0060429D01*
X0090569Y0061244D01*
X0090934Y0061040D01*
X0091334Y0060914D01*
X0091750Y0060872D01*
X0092166Y0060914D01*
X0092566Y0061040D01*
X0092931Y0061244D01*
X0093482Y0060429D01*
X0092946Y0060130D01*
X0092361Y0059945D01*
X0091750Y0059883D01*
X0091139Y0059945D01*
X0090554Y0060130D01*
X0090018Y0060429D01*
X0090569Y0061244D01*
X0090560Y0061231D02*
X0090592Y0061231D01*
X0090560Y0061231D01*
X0090592Y0061231D01*
X0090560Y0061231D01*
X0090592Y0061231D01*
X0090560Y0061231D01*
X0090592Y0061231D01*
X0090428Y0061036D02*
X0090948Y0061036D01*
X0090428Y0061036D01*
X0090948Y0061036D01*
X0090428Y0061036D01*
X0090948Y0061036D01*
X0090428Y0061036D01*
X0090948Y0061036D01*
X0090296Y0060840D02*
X0093204Y0060840D01*
X0090296Y0060840D01*
X0093204Y0060840D01*
X0090296Y0060840D01*
X0093204Y0060840D01*
X0090296Y0060840D01*
X0093204Y0060840D01*
X0093336Y0060645D02*
X0090164Y0060645D01*
X0093336Y0060645D01*
X0090164Y0060645D01*
X0093336Y0060645D01*
X0090164Y0060645D01*
X0093336Y0060645D01*
X0090164Y0060645D01*
X0090032Y0060450D02*
X0093468Y0060450D01*
X0090032Y0060450D01*
X0093468Y0060450D01*
X0090032Y0060450D01*
X0093468Y0060450D01*
X0090032Y0060450D01*
X0093468Y0060450D01*
X0093169Y0060254D02*
X0090331Y0060254D01*
X0093169Y0060254D01*
X0090331Y0060254D01*
X0093169Y0060254D01*
X0090331Y0060254D01*
X0093169Y0060254D01*
X0090331Y0060254D01*
X0090779Y0060059D02*
X0092721Y0060059D01*
X0090779Y0060059D01*
X0092721Y0060059D01*
X0090779Y0060059D01*
X0092721Y0060059D01*
X0090779Y0060059D01*
X0092721Y0060059D01*
X0092552Y0061036D02*
X0093072Y0061036D01*
X0092552Y0061036D01*
X0093072Y0061036D01*
X0092552Y0061036D01*
X0093072Y0061036D01*
X0092552Y0061036D01*
X0093072Y0061036D01*
X0092940Y0061231D02*
X0092908Y0061231D01*
X0092940Y0061231D01*
X0092908Y0061231D01*
X0092940Y0061231D01*
X0092908Y0061231D01*
X0092940Y0061231D01*
X0092908Y0061231D01*
X0093502Y0061815D02*
X0093706Y0062180D01*
X0093832Y0062580D01*
X0093874Y0062996D01*
X0093832Y0063412D01*
X0093706Y0063812D01*
X0093502Y0064177D01*
X0094317Y0064728D01*
X0094616Y0064192D01*
X0094801Y0063607D01*
X0094863Y0062996D01*
X0094801Y0062385D01*
X0094616Y0061800D01*
X0094317Y0061264D01*
X0093502Y0061815D01*
X0093503Y0061817D02*
X0094622Y0061817D01*
X0094683Y0062012D02*
X0093612Y0062012D01*
X0093715Y0062208D02*
X0094745Y0062208D01*
X0094803Y0062403D02*
X0093776Y0062403D01*
X0093834Y0062599D02*
X0094823Y0062599D01*
X0094842Y0062794D02*
X0093854Y0062794D01*
X0093874Y0062989D02*
X0094862Y0062989D01*
X0094844Y0063185D02*
X0093855Y0063185D01*
X0093835Y0063380D02*
X0094824Y0063380D01*
X0094804Y0063575D02*
X0093780Y0063575D01*
X0093719Y0063771D02*
X0094749Y0063771D01*
X0094687Y0063966D02*
X0093620Y0063966D01*
X0093511Y0064161D02*
X0094626Y0064161D01*
X0094524Y0064357D02*
X0093768Y0064357D01*
X0094056Y0064552D02*
X0094415Y0064552D01*
X0093327Y0065334D02*
X0090173Y0065334D01*
X0090041Y0065529D02*
X0093459Y0065529D01*
X0093482Y0065563D02*
X0092931Y0064748D01*
X0092566Y0064952D01*
X0092166Y0065078D01*
X0091750Y0065120D01*
X0091334Y0065078D01*
X0090934Y0064952D01*
X0090569Y0064748D01*
X0090018Y0065563D01*
X0090554Y0065862D01*
X0091139Y0066047D01*
X0091750Y0066109D01*
X0092361Y0066047D01*
X0092946Y0065862D01*
X0093482Y0065563D01*
X0093193Y0065724D02*
X0090307Y0065724D01*
X0090736Y0065920D02*
X0092764Y0065920D01*
X0093195Y0065138D02*
X0090305Y0065138D01*
X0090437Y0064943D02*
X0090918Y0064943D01*
X0089998Y0064177D02*
X0089794Y0063812D01*
X0089668Y0063412D01*
X0089626Y0062996D01*
X0089668Y0062580D01*
X0089794Y0062180D01*
X0089998Y0061815D01*
X0089183Y0061264D01*
X0088884Y0061800D01*
X0088699Y0062385D01*
X0088637Y0062996D01*
X0088699Y0063607D01*
X0088884Y0064192D01*
X0089183Y0064728D01*
X0089998Y0064177D01*
X0089989Y0064161D02*
X0088874Y0064161D01*
X0088813Y0063966D02*
X0089880Y0063966D01*
X0089781Y0063771D02*
X0088751Y0063771D01*
X0088696Y0063575D02*
X0089720Y0063575D01*
X0089665Y0063380D02*
X0088676Y0063380D01*
X0088656Y0063185D02*
X0089645Y0063185D01*
X0089626Y0062989D02*
X0088638Y0062989D01*
X0088658Y0062794D02*
X0089646Y0062794D01*
X0089666Y0062599D02*
X0088677Y0062599D01*
X0088697Y0062403D02*
X0089724Y0062403D01*
X0089785Y0062208D02*
X0088755Y0062208D01*
X0088817Y0062012D02*
X0089888Y0062012D01*
X0089997Y0061817D02*
X0088878Y0061817D01*
X0088983Y0061622D02*
X0089712Y0061622D01*
X0089424Y0061426D02*
X0089092Y0061426D01*
X0088976Y0064357D02*
X0089732Y0064357D01*
X0089444Y0064552D02*
X0089085Y0064552D01*
X0092582Y0064943D02*
X0093063Y0064943D01*
X0093788Y0061622D02*
X0094517Y0061622D01*
X0094408Y0061426D02*
X0094077Y0061426D01*
X0091750Y0141883D02*
X0091139Y0141945D01*
X0090554Y0142130D01*
X0090018Y0142429D01*
X0090569Y0143244D01*
X0090934Y0143040D01*
X0091334Y0142914D01*
X0091750Y0142872D01*
X0092166Y0142914D01*
X0092566Y0143040D01*
X0092931Y0143244D01*
X0093482Y0142429D01*
X0092946Y0142130D01*
X0092361Y0141945D01*
X0091750Y0141883D01*
X0091139Y0141945D01*
X0090554Y0142130D01*
X0090018Y0142429D01*
X0090569Y0143244D01*
X0090934Y0143040D01*
X0091334Y0142914D01*
X0091750Y0142872D01*
X0092166Y0142914D01*
X0092566Y0143040D01*
X0092931Y0143244D01*
X0093482Y0142429D01*
X0092946Y0142130D01*
X0092361Y0141945D01*
X0091750Y0141883D01*
X0091139Y0141945D01*
X0090554Y0142130D01*
X0090018Y0142429D01*
X0090569Y0143244D01*
X0090934Y0143040D01*
X0091334Y0142914D01*
X0091750Y0142872D01*
X0092166Y0142914D01*
X0092566Y0143040D01*
X0092931Y0143244D01*
X0093482Y0142429D01*
X0092946Y0142130D01*
X0092361Y0141945D01*
X0091750Y0141883D01*
X0091139Y0141945D01*
X0090554Y0142130D01*
X0090018Y0142429D01*
X0090569Y0143244D01*
X0090934Y0143040D01*
X0091334Y0142914D01*
X0091750Y0142872D01*
X0092166Y0142914D01*
X0092566Y0143040D01*
X0092931Y0143244D01*
X0093482Y0142429D01*
X0092946Y0142130D01*
X0092361Y0141945D01*
X0091750Y0141883D01*
X0091139Y0141945D01*
X0090554Y0142130D01*
X0090018Y0142429D01*
X0090569Y0143244D01*
X0090934Y0143040D01*
X0091334Y0142914D01*
X0091750Y0142872D01*
X0092166Y0142914D01*
X0092566Y0143040D01*
X0092931Y0143244D01*
X0093482Y0142429D01*
X0092946Y0142130D01*
X0092361Y0141945D01*
X0091750Y0141883D01*
X0091139Y0141945D01*
X0090554Y0142130D01*
X0090018Y0142429D01*
X0090569Y0143244D01*
X0090934Y0143040D01*
X0091334Y0142914D01*
X0091750Y0142872D01*
X0092166Y0142914D01*
X0092566Y0143040D01*
X0092931Y0143244D01*
X0093482Y0142429D01*
X0092946Y0142130D01*
X0092361Y0141945D01*
X0091750Y0141883D01*
X0091139Y0141945D01*
X0090554Y0142130D01*
X0090018Y0142429D01*
X0090569Y0143244D01*
X0090934Y0143040D01*
X0091334Y0142914D01*
X0091750Y0142872D01*
X0092166Y0142914D01*
X0092566Y0143040D01*
X0092931Y0143244D01*
X0093482Y0142429D01*
X0092946Y0142130D01*
X0092361Y0141945D01*
X0091750Y0141883D01*
X0091432Y0141915D02*
X0092068Y0141915D01*
X0091432Y0141915D01*
X0092068Y0141915D01*
X0091432Y0141915D01*
X0092068Y0141915D01*
X0091432Y0141915D01*
X0092068Y0141915D01*
X0092885Y0142111D02*
X0090615Y0142111D01*
X0092885Y0142111D01*
X0090615Y0142111D01*
X0092885Y0142111D01*
X0090615Y0142111D01*
X0092885Y0142111D01*
X0090615Y0142111D01*
X0090238Y0142306D02*
X0093262Y0142306D01*
X0090238Y0142306D01*
X0093262Y0142306D01*
X0090238Y0142306D01*
X0093262Y0142306D01*
X0090238Y0142306D01*
X0093262Y0142306D01*
X0093433Y0142502D02*
X0090067Y0142502D01*
X0093433Y0142502D01*
X0090067Y0142502D01*
X0093433Y0142502D01*
X0090067Y0142502D01*
X0093433Y0142502D01*
X0090067Y0142502D01*
X0090199Y0142697D02*
X0093301Y0142697D01*
X0090199Y0142697D01*
X0093301Y0142697D01*
X0090199Y0142697D01*
X0093301Y0142697D01*
X0090199Y0142697D01*
X0093301Y0142697D01*
X0093169Y0142892D02*
X0091951Y0142892D01*
X0093169Y0142892D01*
X0091951Y0142892D01*
X0093169Y0142892D01*
X0091951Y0142892D01*
X0093169Y0142892D01*
X0091951Y0142892D01*
X0091549Y0142892D02*
X0090331Y0142892D01*
X0091549Y0142892D01*
X0090331Y0142892D01*
X0091549Y0142892D01*
X0090331Y0142892D01*
X0091549Y0142892D01*
X0090331Y0142892D01*
X0090463Y0143088D02*
X0090849Y0143088D01*
X0090463Y0143088D01*
X0090849Y0143088D01*
X0090463Y0143088D01*
X0090849Y0143088D01*
X0090463Y0143088D01*
X0090849Y0143088D01*
X0089998Y0143815D02*
X0089183Y0143264D01*
X0088884Y0143800D01*
X0088699Y0144385D01*
X0088637Y0144996D01*
X0088699Y0145607D01*
X0088884Y0146192D01*
X0089183Y0146728D01*
X0089998Y0146177D01*
X0089794Y0145812D01*
X0089668Y0145412D01*
X0089626Y0144996D01*
X0089668Y0144580D01*
X0089794Y0144180D01*
X0089998Y0143815D01*
X0089968Y0143869D02*
X0088862Y0143869D01*
X0088800Y0144064D02*
X0089859Y0144064D01*
X0089769Y0144260D02*
X0088739Y0144260D01*
X0088692Y0144455D02*
X0089707Y0144455D01*
X0089661Y0144650D02*
X0088672Y0144650D01*
X0088652Y0144846D02*
X0089641Y0144846D01*
X0089630Y0145041D02*
X0088641Y0145041D01*
X0088661Y0145237D02*
X0089650Y0145237D01*
X0089674Y0145432D02*
X0088681Y0145432D01*
X0088706Y0145627D02*
X0089736Y0145627D01*
X0089800Y0145823D02*
X0088767Y0145823D01*
X0088829Y0146018D02*
X0089909Y0146018D01*
X0089944Y0146213D02*
X0088896Y0146213D01*
X0089005Y0146409D02*
X0089656Y0146409D01*
X0089367Y0146604D02*
X0089114Y0146604D01*
X0090138Y0147386D02*
X0093362Y0147386D01*
X0093450Y0147581D02*
X0090050Y0147581D01*
X0090018Y0147563D02*
X0090569Y0146748D01*
X0090934Y0146952D01*
X0091334Y0147078D01*
X0091750Y0147120D01*
X0092166Y0147078D01*
X0092566Y0146952D01*
X0092931Y0146748D01*
X0093482Y0147563D01*
X0092946Y0147862D01*
X0092361Y0148047D01*
X0091750Y0148109D01*
X0091139Y0148047D01*
X0090554Y0147862D01*
X0090018Y0147563D01*
X0090400Y0147776D02*
X0093100Y0147776D01*
X0092599Y0147972D02*
X0090901Y0147972D01*
X0091070Y0146995D02*
X0090402Y0146995D01*
X0090270Y0147190D02*
X0093230Y0147190D01*
X0093098Y0146995D02*
X0092430Y0146995D01*
X0092839Y0146799D02*
X0092966Y0146799D01*
X0093502Y0146177D02*
X0094317Y0146728D01*
X0094616Y0146192D01*
X0094801Y0145607D01*
X0094863Y0144996D01*
X0094801Y0144385D01*
X0094616Y0143800D01*
X0094317Y0143264D01*
X0093502Y0143815D01*
X0093706Y0144180D01*
X0093832Y0144580D01*
X0093874Y0144996D01*
X0093832Y0145412D01*
X0093706Y0145812D01*
X0093502Y0146177D01*
X0093555Y0146213D02*
X0094604Y0146213D01*
X0094671Y0146018D02*
X0093591Y0146018D01*
X0093700Y0145823D02*
X0094733Y0145823D01*
X0094794Y0145627D02*
X0093764Y0145627D01*
X0093826Y0145432D02*
X0094819Y0145432D01*
X0094839Y0145237D02*
X0093850Y0145237D01*
X0093870Y0145041D02*
X0094859Y0145041D01*
X0094848Y0144846D02*
X0093859Y0144846D01*
X0093839Y0144650D02*
X0094828Y0144650D01*
X0094808Y0144455D02*
X0093793Y0144455D01*
X0093731Y0144260D02*
X0094761Y0144260D01*
X0094700Y0144064D02*
X0093641Y0144064D01*
X0093532Y0143869D02*
X0094638Y0143869D01*
X0094546Y0143674D02*
X0093711Y0143674D01*
X0094000Y0143478D02*
X0094437Y0143478D01*
X0094328Y0143283D02*
X0094289Y0143283D01*
X0093037Y0143088D02*
X0092651Y0143088D01*
X0093037Y0143088D01*
X0092651Y0143088D01*
X0093037Y0143088D01*
X0092651Y0143088D01*
X0093037Y0143088D01*
X0092651Y0143088D01*
X0089789Y0143674D02*
X0088954Y0143674D01*
X0089063Y0143478D02*
X0089500Y0143478D01*
X0089211Y0143283D02*
X0089172Y0143283D01*
X0090534Y0146799D02*
X0090661Y0146799D01*
X0093844Y0146409D02*
X0094495Y0146409D01*
X0094386Y0146604D02*
X0094133Y0146604D01*
X0091750Y0223883D02*
X0091139Y0223945D01*
X0090554Y0224130D01*
X0090018Y0224429D01*
X0090569Y0225244D01*
X0090934Y0225040D01*
X0091334Y0224914D01*
X0091750Y0224872D01*
X0092166Y0224914D01*
X0092566Y0225040D01*
X0092931Y0225244D01*
X0093482Y0224429D01*
X0092946Y0224130D01*
X0092361Y0223945D01*
X0091750Y0223883D01*
X0091139Y0223945D01*
X0090554Y0224130D01*
X0090018Y0224429D01*
X0090569Y0225244D01*
X0090934Y0225040D01*
X0091334Y0224914D01*
X0091750Y0224872D01*
X0092166Y0224914D01*
X0092566Y0225040D01*
X0092931Y0225244D01*
X0093482Y0224429D01*
X0092946Y0224130D01*
X0092361Y0223945D01*
X0091750Y0223883D01*
X0091139Y0223945D01*
X0090554Y0224130D01*
X0090018Y0224429D01*
X0090569Y0225244D01*
X0090934Y0225040D01*
X0091334Y0224914D01*
X0091750Y0224872D01*
X0092166Y0224914D01*
X0092566Y0225040D01*
X0092931Y0225244D01*
X0093482Y0224429D01*
X0092946Y0224130D01*
X0092361Y0223945D01*
X0091750Y0223883D01*
X0091139Y0223945D01*
X0090554Y0224130D01*
X0090018Y0224429D01*
X0090569Y0225244D01*
X0090934Y0225040D01*
X0091334Y0224914D01*
X0091750Y0224872D01*
X0092166Y0224914D01*
X0092566Y0225040D01*
X0092931Y0225244D01*
X0093482Y0224429D01*
X0092946Y0224130D01*
X0092361Y0223945D01*
X0091750Y0223883D01*
X0091139Y0223945D01*
X0090554Y0224130D01*
X0090018Y0224429D01*
X0090569Y0225244D01*
X0090934Y0225040D01*
X0091334Y0224914D01*
X0091750Y0224872D01*
X0092166Y0224914D01*
X0092566Y0225040D01*
X0092931Y0225244D01*
X0093482Y0224429D01*
X0092946Y0224130D01*
X0092361Y0223945D01*
X0091750Y0223883D01*
X0091139Y0223945D01*
X0090554Y0224130D01*
X0090018Y0224429D01*
X0090569Y0225244D01*
X0090934Y0225040D01*
X0091334Y0224914D01*
X0091750Y0224872D01*
X0092166Y0224914D01*
X0092566Y0225040D01*
X0092931Y0225244D01*
X0093482Y0224429D01*
X0092946Y0224130D01*
X0092361Y0223945D01*
X0091750Y0223883D01*
X0091139Y0223945D01*
X0090554Y0224130D01*
X0090018Y0224429D01*
X0090569Y0225244D01*
X0090934Y0225040D01*
X0091334Y0224914D01*
X0091750Y0224872D01*
X0092166Y0224914D01*
X0092566Y0225040D01*
X0092931Y0225244D01*
X0093482Y0224429D01*
X0092946Y0224130D01*
X0092361Y0223945D01*
X0091750Y0223883D01*
X0091070Y0223967D02*
X0092430Y0223967D01*
X0091070Y0223967D01*
X0092430Y0223967D01*
X0091070Y0223967D01*
X0092430Y0223967D01*
X0091070Y0223967D01*
X0092430Y0223967D01*
X0093005Y0224163D02*
X0090495Y0224163D01*
X0093005Y0224163D01*
X0090495Y0224163D01*
X0093005Y0224163D01*
X0090495Y0224163D01*
X0093005Y0224163D01*
X0090495Y0224163D01*
X0090145Y0224358D02*
X0093355Y0224358D01*
X0090145Y0224358D01*
X0093355Y0224358D01*
X0090145Y0224358D01*
X0093355Y0224358D01*
X0090145Y0224358D01*
X0093355Y0224358D01*
X0093398Y0224553D02*
X0090102Y0224553D01*
X0093398Y0224553D01*
X0090102Y0224553D01*
X0093398Y0224553D01*
X0090102Y0224553D01*
X0093398Y0224553D01*
X0090102Y0224553D01*
X0090234Y0224749D02*
X0093266Y0224749D01*
X0090234Y0224749D01*
X0093266Y0224749D01*
X0090234Y0224749D01*
X0093266Y0224749D01*
X0090234Y0224749D01*
X0093266Y0224749D01*
X0093134Y0224944D02*
X0092261Y0224944D01*
X0093134Y0224944D01*
X0092261Y0224944D01*
X0093134Y0224944D01*
X0092261Y0224944D01*
X0093134Y0224944D01*
X0092261Y0224944D01*
X0092744Y0225140D02*
X0093002Y0225140D01*
X0092744Y0225140D01*
X0093002Y0225140D01*
X0092744Y0225140D01*
X0093002Y0225140D01*
X0092744Y0225140D01*
X0093002Y0225140D01*
X0093502Y0225815D02*
X0093706Y0226180D01*
X0093832Y0226580D01*
X0093874Y0226996D01*
X0093832Y0227412D01*
X0093706Y0227812D01*
X0093502Y0228177D01*
X0094317Y0228728D01*
X0094616Y0228192D01*
X0094801Y0227607D01*
X0094863Y0226996D01*
X0094801Y0226385D01*
X0094616Y0225800D01*
X0094317Y0225264D01*
X0093502Y0225815D01*
X0093561Y0225921D02*
X0094654Y0225921D01*
X0094716Y0226116D02*
X0093670Y0226116D01*
X0093747Y0226312D02*
X0094778Y0226312D01*
X0094813Y0226507D02*
X0093809Y0226507D01*
X0093844Y0226702D02*
X0094833Y0226702D01*
X0094853Y0226898D02*
X0093864Y0226898D01*
X0093864Y0227093D02*
X0094853Y0227093D01*
X0094833Y0227288D02*
X0093845Y0227288D01*
X0093809Y0227484D02*
X0094813Y0227484D01*
X0094778Y0227679D02*
X0093748Y0227679D01*
X0093671Y0227875D02*
X0094716Y0227875D01*
X0094655Y0228070D02*
X0093562Y0228070D01*
X0093632Y0228265D02*
X0094575Y0228265D01*
X0094466Y0228461D02*
X0093921Y0228461D01*
X0094210Y0228656D02*
X0094357Y0228656D01*
X0093397Y0229437D02*
X0090103Y0229437D01*
X0090018Y0229563D02*
X0090569Y0228748D01*
X0090934Y0228952D01*
X0091334Y0229078D01*
X0091750Y0229120D01*
X0092166Y0229078D01*
X0092566Y0228952D01*
X0092931Y0228748D01*
X0093482Y0229563D01*
X0092946Y0229862D01*
X0092361Y0230047D01*
X0091750Y0230109D01*
X0091139Y0230047D01*
X0090554Y0229862D01*
X0090018Y0229563D01*
X0090143Y0229633D02*
X0093357Y0229633D01*
X0093007Y0229828D02*
X0090493Y0229828D01*
X0091066Y0230024D02*
X0092434Y0230024D01*
X0092265Y0229047D02*
X0093133Y0229047D01*
X0093265Y0229242D02*
X0090235Y0229242D01*
X0090367Y0229047D02*
X0091235Y0229047D01*
X0090754Y0228851D02*
X0090499Y0228851D01*
X0089998Y0228177D02*
X0089183Y0228728D01*
X0088884Y0228192D01*
X0088699Y0227607D01*
X0088637Y0226996D01*
X0088699Y0226385D01*
X0088884Y0225800D01*
X0089183Y0225264D01*
X0089998Y0225815D01*
X0089794Y0226180D01*
X0089668Y0226580D01*
X0089626Y0226996D01*
X0089668Y0227412D01*
X0089794Y0227812D01*
X0089998Y0228177D01*
X0089938Y0228070D02*
X0088845Y0228070D01*
X0088784Y0227875D02*
X0089829Y0227875D01*
X0089752Y0227679D02*
X0088722Y0227679D01*
X0088687Y0227484D02*
X0089691Y0227484D01*
X0089656Y0227288D02*
X0088667Y0227288D01*
X0088647Y0227093D02*
X0089636Y0227093D01*
X0089636Y0226898D02*
X0088647Y0226898D01*
X0088667Y0226702D02*
X0089656Y0226702D01*
X0089691Y0226507D02*
X0088687Y0226507D01*
X0088723Y0226312D02*
X0089753Y0226312D01*
X0089830Y0226116D02*
X0088784Y0226116D01*
X0088846Y0225921D02*
X0089939Y0225921D01*
X0089866Y0225726D02*
X0088925Y0225726D01*
X0089034Y0225530D02*
X0089577Y0225530D01*
X0089288Y0225335D02*
X0089143Y0225335D01*
X0090366Y0224944D02*
X0091239Y0224944D01*
X0090366Y0224944D01*
X0091239Y0224944D01*
X0090366Y0224944D01*
X0091239Y0224944D01*
X0090366Y0224944D01*
X0091239Y0224944D01*
X0090756Y0225140D02*
X0090498Y0225140D01*
X0090756Y0225140D01*
X0090498Y0225140D01*
X0090756Y0225140D01*
X0090498Y0225140D01*
X0090756Y0225140D01*
X0090498Y0225140D01*
X0089868Y0228265D02*
X0088925Y0228265D01*
X0089034Y0228461D02*
X0089579Y0228461D01*
X0089290Y0228656D02*
X0089143Y0228656D01*
X0092746Y0228851D02*
X0093001Y0228851D01*
X0093634Y0225726D02*
X0094575Y0225726D01*
X0094466Y0225530D02*
X0093923Y0225530D01*
X0094212Y0225335D02*
X0094357Y0225335D01*
X0091750Y0305883D02*
X0091139Y0305945D01*
X0090554Y0306130D01*
X0090018Y0306429D01*
X0090569Y0307244D01*
X0090934Y0307040D01*
X0091334Y0306914D01*
X0091750Y0306872D01*
X0092166Y0306914D01*
X0092566Y0307040D01*
X0092931Y0307244D01*
X0093482Y0306429D01*
X0092946Y0306130D01*
X0092361Y0305945D01*
X0091750Y0305883D01*
X0091139Y0305945D01*
X0090554Y0306130D01*
X0090018Y0306429D01*
X0090569Y0307244D01*
X0090934Y0307040D01*
X0091334Y0306914D01*
X0091750Y0306872D01*
X0092166Y0306914D01*
X0092566Y0307040D01*
X0092931Y0307244D01*
X0093482Y0306429D01*
X0092946Y0306130D01*
X0092361Y0305945D01*
X0091750Y0305883D01*
X0091139Y0305945D01*
X0090554Y0306130D01*
X0090018Y0306429D01*
X0090569Y0307244D01*
X0090934Y0307040D01*
X0091334Y0306914D01*
X0091750Y0306872D01*
X0092166Y0306914D01*
X0092566Y0307040D01*
X0092931Y0307244D01*
X0093482Y0306429D01*
X0092946Y0306130D01*
X0092361Y0305945D01*
X0091750Y0305883D01*
X0091139Y0305945D01*
X0090554Y0306130D01*
X0090018Y0306429D01*
X0090569Y0307244D01*
X0090934Y0307040D01*
X0091334Y0306914D01*
X0091750Y0306872D01*
X0092166Y0306914D01*
X0092566Y0307040D01*
X0092931Y0307244D01*
X0093482Y0306429D01*
X0092946Y0306130D01*
X0092361Y0305945D01*
X0091750Y0305883D01*
X0091139Y0305945D01*
X0090554Y0306130D01*
X0090018Y0306429D01*
X0090569Y0307244D01*
X0090934Y0307040D01*
X0091334Y0306914D01*
X0091750Y0306872D01*
X0092166Y0306914D01*
X0092566Y0307040D01*
X0092931Y0307244D01*
X0093482Y0306429D01*
X0092946Y0306130D01*
X0092361Y0305945D01*
X0091750Y0305883D01*
X0091139Y0305945D01*
X0090554Y0306130D01*
X0090018Y0306429D01*
X0090569Y0307244D01*
X0090934Y0307040D01*
X0091334Y0306914D01*
X0091750Y0306872D01*
X0092166Y0306914D01*
X0092566Y0307040D01*
X0092931Y0307244D01*
X0093482Y0306429D01*
X0092946Y0306130D01*
X0092361Y0305945D01*
X0091750Y0305883D01*
X0091139Y0305945D01*
X0090554Y0306130D01*
X0090018Y0306429D01*
X0090569Y0307244D01*
X0090934Y0307040D01*
X0091334Y0306914D01*
X0091750Y0306872D01*
X0092166Y0306914D01*
X0092566Y0307040D01*
X0092931Y0307244D01*
X0093482Y0306429D01*
X0092946Y0306130D01*
X0092361Y0305945D01*
X0091750Y0305883D01*
X0090905Y0306019D02*
X0092595Y0306019D01*
X0090905Y0306019D01*
X0092595Y0306019D01*
X0090905Y0306019D01*
X0092595Y0306019D01*
X0090905Y0306019D01*
X0092595Y0306019D01*
X0093098Y0306215D02*
X0090402Y0306215D01*
X0093098Y0306215D01*
X0090402Y0306215D01*
X0093098Y0306215D01*
X0090402Y0306215D01*
X0093098Y0306215D01*
X0090402Y0306215D01*
X0090052Y0306410D02*
X0093448Y0306410D01*
X0090052Y0306410D01*
X0093448Y0306410D01*
X0090052Y0306410D01*
X0093448Y0306410D01*
X0090052Y0306410D01*
X0093448Y0306410D01*
X0093363Y0306605D02*
X0090137Y0306605D01*
X0093363Y0306605D01*
X0090137Y0306605D01*
X0093363Y0306605D01*
X0090137Y0306605D01*
X0093363Y0306605D01*
X0090137Y0306605D01*
X0090269Y0306801D02*
X0093231Y0306801D01*
X0090269Y0306801D01*
X0093231Y0306801D01*
X0090269Y0306801D01*
X0093231Y0306801D01*
X0090269Y0306801D01*
X0093231Y0306801D01*
X0093099Y0306996D02*
X0092426Y0306996D01*
X0093099Y0306996D01*
X0092426Y0306996D01*
X0093099Y0306996D01*
X0092426Y0306996D01*
X0093099Y0306996D01*
X0092426Y0306996D01*
X0092837Y0307191D02*
X0092967Y0307191D01*
X0092837Y0307191D01*
X0092967Y0307191D01*
X0092837Y0307191D01*
X0092967Y0307191D01*
X0092837Y0307191D01*
X0092967Y0307191D01*
X0093502Y0307815D02*
X0093706Y0308180D01*
X0093832Y0308580D01*
X0093874Y0308996D01*
X0093832Y0309412D01*
X0093706Y0309812D01*
X0093502Y0310177D01*
X0094317Y0310728D01*
X0094616Y0310192D01*
X0094801Y0309607D01*
X0094863Y0308996D01*
X0094801Y0308385D01*
X0094616Y0307800D01*
X0094317Y0307264D01*
X0093502Y0307815D01*
X0093557Y0307778D02*
X0094604Y0307778D01*
X0094671Y0307973D02*
X0093590Y0307973D01*
X0093699Y0308168D02*
X0094732Y0308168D01*
X0094794Y0308364D02*
X0093764Y0308364D01*
X0093825Y0308559D02*
X0094818Y0308559D01*
X0094838Y0308754D02*
X0093850Y0308754D01*
X0093870Y0308950D02*
X0094858Y0308950D01*
X0094848Y0309145D02*
X0093859Y0309145D01*
X0093839Y0309340D02*
X0094828Y0309340D01*
X0094808Y0309536D02*
X0093793Y0309536D01*
X0093731Y0309731D02*
X0094762Y0309731D01*
X0094700Y0309926D02*
X0093642Y0309926D01*
X0093533Y0310122D02*
X0094638Y0310122D01*
X0094546Y0310317D02*
X0093709Y0310317D01*
X0093998Y0310513D02*
X0094437Y0310513D01*
X0094328Y0310708D02*
X0094287Y0310708D01*
X0093300Y0311294D02*
X0090200Y0311294D01*
X0090332Y0311099D02*
X0091537Y0311099D01*
X0091334Y0311078D02*
X0090934Y0310952D01*
X0090569Y0310748D01*
X0090018Y0311563D01*
X0090554Y0311862D01*
X0091139Y0312047D01*
X0091750Y0312109D01*
X0092361Y0312047D01*
X0092946Y0311862D01*
X0093482Y0311563D01*
X0092931Y0310748D01*
X0092566Y0310952D01*
X0092166Y0311078D01*
X0091750Y0311120D01*
X0091334Y0311078D01*
X0090847Y0310903D02*
X0090464Y0310903D01*
X0090068Y0311489D02*
X0093433Y0311489D01*
X0093264Y0311685D02*
X0090236Y0311685D01*
X0090611Y0311880D02*
X0092889Y0311880D01*
X0093168Y0311099D02*
X0091963Y0311099D01*
X0092653Y0310903D02*
X0093036Y0310903D01*
X0092080Y0312075D02*
X0091420Y0312075D01*
X0089998Y0310177D02*
X0089794Y0309812D01*
X0089668Y0309412D01*
X0089626Y0308996D01*
X0089668Y0308580D01*
X0089794Y0308180D01*
X0089998Y0307815D01*
X0089183Y0307264D01*
X0088884Y0307800D01*
X0088699Y0308385D01*
X0088637Y0308996D01*
X0088699Y0309607D01*
X0088884Y0310192D01*
X0089183Y0310728D01*
X0089998Y0310177D01*
X0089967Y0310122D02*
X0088862Y0310122D01*
X0088800Y0309926D02*
X0089858Y0309926D01*
X0089769Y0309731D02*
X0088738Y0309731D01*
X0088692Y0309536D02*
X0089707Y0309536D01*
X0089661Y0309340D02*
X0088672Y0309340D01*
X0088652Y0309145D02*
X0089641Y0309145D01*
X0089630Y0308950D02*
X0088642Y0308950D01*
X0088662Y0308754D02*
X0089650Y0308754D01*
X0089675Y0308559D02*
X0088682Y0308559D01*
X0088706Y0308364D02*
X0089736Y0308364D01*
X0089801Y0308168D02*
X0088768Y0308168D01*
X0088829Y0307973D02*
X0089910Y0307973D01*
X0089943Y0307778D02*
X0088896Y0307778D01*
X0089005Y0307582D02*
X0089654Y0307582D01*
X0089365Y0307387D02*
X0089114Y0307387D01*
X0090401Y0306996D02*
X0091074Y0306996D01*
X0090401Y0306996D01*
X0091074Y0306996D01*
X0090401Y0306996D01*
X0091074Y0306996D01*
X0090401Y0306996D01*
X0091074Y0306996D01*
X0090663Y0307191D02*
X0090533Y0307191D01*
X0090663Y0307191D01*
X0090533Y0307191D01*
X0090663Y0307191D01*
X0090533Y0307191D01*
X0090663Y0307191D01*
X0090533Y0307191D01*
X0089791Y0310317D02*
X0088954Y0310317D01*
X0089063Y0310513D02*
X0089502Y0310513D01*
X0089213Y0310708D02*
X0089172Y0310708D01*
X0093846Y0307582D02*
X0094495Y0307582D01*
X0094386Y0307387D02*
X0094135Y0307387D01*
X0278637Y0308996D02*
X0278699Y0309607D01*
X0278884Y0310192D01*
X0279183Y0310728D01*
X0279998Y0310177D01*
X0279794Y0309812D01*
X0279668Y0309412D01*
X0279626Y0308996D01*
X0279668Y0308580D01*
X0279794Y0308180D01*
X0279998Y0307815D01*
X0279183Y0307264D01*
X0278884Y0307800D01*
X0278699Y0308385D01*
X0278637Y0308996D01*
X0278642Y0308950D02*
X0279630Y0308950D01*
X0279641Y0309145D02*
X0278652Y0309145D01*
X0278672Y0309340D02*
X0279661Y0309340D01*
X0279707Y0309536D02*
X0278692Y0309536D01*
X0278738Y0309731D02*
X0279769Y0309731D01*
X0279858Y0309926D02*
X0278800Y0309926D01*
X0278862Y0310122D02*
X0279967Y0310122D01*
X0279791Y0310317D02*
X0278954Y0310317D01*
X0279063Y0310513D02*
X0279502Y0310513D01*
X0279213Y0310708D02*
X0279172Y0310708D01*
X0280200Y0311294D02*
X0283300Y0311294D01*
X0283168Y0311099D02*
X0281963Y0311099D01*
X0282166Y0311078D02*
X0281750Y0311120D01*
X0281334Y0311078D01*
X0280934Y0310952D01*
X0280569Y0310748D01*
X0280018Y0311563D01*
X0280554Y0311862D01*
X0281139Y0312047D01*
X0281750Y0312109D01*
X0282361Y0312047D01*
X0282946Y0311862D01*
X0283482Y0311563D01*
X0282931Y0310748D01*
X0282566Y0310952D01*
X0282166Y0311078D01*
X0282653Y0310903D02*
X0283036Y0310903D01*
X0283433Y0311489D02*
X0280068Y0311489D01*
X0280236Y0311685D02*
X0283264Y0311685D01*
X0282889Y0311880D02*
X0280611Y0311880D01*
X0280332Y0311099D02*
X0281537Y0311099D01*
X0280847Y0310903D02*
X0280464Y0310903D01*
X0281420Y0312075D02*
X0282080Y0312075D01*
X0283502Y0310177D02*
X0283706Y0309812D01*
X0283832Y0309412D01*
X0283874Y0308996D01*
X0283832Y0308580D01*
X0283706Y0308180D01*
X0283502Y0307815D01*
X0284317Y0307264D01*
X0284616Y0307800D01*
X0284801Y0308385D01*
X0284863Y0308996D01*
X0284801Y0309607D01*
X0284616Y0310192D01*
X0284317Y0310728D01*
X0283502Y0310177D01*
X0283533Y0310122D02*
X0284638Y0310122D01*
X0284700Y0309926D02*
X0283642Y0309926D01*
X0283731Y0309731D02*
X0284762Y0309731D01*
X0284808Y0309536D02*
X0283793Y0309536D01*
X0283839Y0309340D02*
X0284828Y0309340D01*
X0284848Y0309145D02*
X0283859Y0309145D01*
X0283870Y0308950D02*
X0284858Y0308950D01*
X0284838Y0308754D02*
X0283850Y0308754D01*
X0283825Y0308559D02*
X0284818Y0308559D01*
X0284794Y0308364D02*
X0283764Y0308364D01*
X0283699Y0308168D02*
X0284732Y0308168D01*
X0284671Y0307973D02*
X0283590Y0307973D01*
X0283557Y0307778D02*
X0284604Y0307778D01*
X0284495Y0307582D02*
X0283846Y0307582D01*
X0284135Y0307387D02*
X0284386Y0307387D01*
X0283363Y0306605D02*
X0280137Y0306605D01*
X0283363Y0306605D01*
X0280137Y0306605D01*
X0283363Y0306605D01*
X0280137Y0306605D01*
X0283363Y0306605D01*
X0280137Y0306605D01*
X0280018Y0306429D02*
X0280569Y0307244D01*
X0280934Y0307040D01*
X0281334Y0306914D01*
X0281750Y0306872D01*
X0282166Y0306914D01*
X0282566Y0307040D01*
X0282931Y0307244D01*
X0283482Y0306429D01*
X0282946Y0306130D01*
X0282361Y0305945D01*
X0281750Y0305883D01*
X0281139Y0305945D01*
X0280554Y0306130D01*
X0280018Y0306429D01*
X0280569Y0307244D01*
X0280934Y0307040D01*
X0281334Y0306914D01*
X0281750Y0306872D01*
X0282166Y0306914D01*
X0282566Y0307040D01*
X0282931Y0307244D01*
X0283482Y0306429D01*
X0282946Y0306130D01*
X0282361Y0305945D01*
X0281750Y0305883D01*
X0281139Y0305945D01*
X0280554Y0306130D01*
X0280018Y0306429D01*
X0280569Y0307244D01*
X0280934Y0307040D01*
X0281334Y0306914D01*
X0281750Y0306872D01*
X0282166Y0306914D01*
X0282566Y0307040D01*
X0282931Y0307244D01*
X0283482Y0306429D01*
X0282946Y0306130D01*
X0282361Y0305945D01*
X0281750Y0305883D01*
X0281139Y0305945D01*
X0280554Y0306130D01*
X0280018Y0306429D01*
X0280569Y0307244D01*
X0280934Y0307040D01*
X0281334Y0306914D01*
X0281750Y0306872D01*
X0282166Y0306914D01*
X0282566Y0307040D01*
X0282931Y0307244D01*
X0283482Y0306429D01*
X0282946Y0306130D01*
X0282361Y0305945D01*
X0281750Y0305883D01*
X0281139Y0305945D01*
X0280554Y0306130D01*
X0280018Y0306429D01*
X0280569Y0307244D01*
X0280934Y0307040D01*
X0281334Y0306914D01*
X0281750Y0306872D01*
X0282166Y0306914D01*
X0282566Y0307040D01*
X0282931Y0307244D01*
X0283482Y0306429D01*
X0282946Y0306130D01*
X0282361Y0305945D01*
X0281750Y0305883D01*
X0281139Y0305945D01*
X0280554Y0306130D01*
X0280018Y0306429D01*
X0280569Y0307244D01*
X0280934Y0307040D01*
X0281334Y0306914D01*
X0281750Y0306872D01*
X0282166Y0306914D01*
X0282566Y0307040D01*
X0282931Y0307244D01*
X0283482Y0306429D01*
X0282946Y0306130D01*
X0282361Y0305945D01*
X0281750Y0305883D01*
X0281139Y0305945D01*
X0280554Y0306130D01*
X0280018Y0306429D01*
X0280569Y0307244D01*
X0280934Y0307040D01*
X0281334Y0306914D01*
X0281750Y0306872D01*
X0282166Y0306914D01*
X0282566Y0307040D01*
X0282931Y0307244D01*
X0283482Y0306429D01*
X0282946Y0306130D01*
X0282361Y0305945D01*
X0281750Y0305883D01*
X0281139Y0305945D01*
X0280554Y0306130D01*
X0280018Y0306429D01*
X0280052Y0306410D02*
X0283448Y0306410D01*
X0280052Y0306410D01*
X0283448Y0306410D01*
X0280052Y0306410D01*
X0283448Y0306410D01*
X0280052Y0306410D01*
X0283448Y0306410D01*
X0283098Y0306215D02*
X0280402Y0306215D01*
X0283098Y0306215D01*
X0280402Y0306215D01*
X0283098Y0306215D01*
X0280402Y0306215D01*
X0283098Y0306215D01*
X0280402Y0306215D01*
X0280905Y0306019D02*
X0282595Y0306019D01*
X0280905Y0306019D01*
X0282595Y0306019D01*
X0280905Y0306019D01*
X0282595Y0306019D01*
X0280905Y0306019D01*
X0282595Y0306019D01*
X0282426Y0306996D02*
X0283099Y0306996D01*
X0282426Y0306996D01*
X0283099Y0306996D01*
X0282426Y0306996D01*
X0283099Y0306996D01*
X0282426Y0306996D01*
X0283099Y0306996D01*
X0283231Y0306801D02*
X0280269Y0306801D01*
X0283231Y0306801D01*
X0280269Y0306801D01*
X0283231Y0306801D01*
X0280269Y0306801D01*
X0283231Y0306801D01*
X0280269Y0306801D01*
X0280401Y0306996D02*
X0281074Y0306996D01*
X0280401Y0306996D01*
X0281074Y0306996D01*
X0280401Y0306996D01*
X0281074Y0306996D01*
X0280401Y0306996D01*
X0281074Y0306996D01*
X0280663Y0307191D02*
X0280533Y0307191D01*
X0280663Y0307191D01*
X0280533Y0307191D01*
X0280663Y0307191D01*
X0280533Y0307191D01*
X0280663Y0307191D01*
X0280533Y0307191D01*
X0279943Y0307778D02*
X0278896Y0307778D01*
X0278829Y0307973D02*
X0279910Y0307973D01*
X0279801Y0308168D02*
X0278768Y0308168D01*
X0278706Y0308364D02*
X0279736Y0308364D01*
X0279675Y0308559D02*
X0278682Y0308559D01*
X0278662Y0308754D02*
X0279650Y0308754D01*
X0279654Y0307582D02*
X0279005Y0307582D01*
X0279114Y0307387D02*
X0279365Y0307387D01*
X0282837Y0307191D02*
X0282967Y0307191D01*
X0282837Y0307191D01*
X0282967Y0307191D01*
X0282837Y0307191D01*
X0282967Y0307191D01*
X0282837Y0307191D01*
X0282967Y0307191D01*
X0283709Y0310317D02*
X0284546Y0310317D01*
X0284437Y0310513D02*
X0283998Y0310513D01*
X0284287Y0310708D02*
X0284328Y0310708D01*
X0281750Y0230109D02*
X0282361Y0230047D01*
X0282946Y0229862D01*
X0283482Y0229563D01*
X0282931Y0228748D01*
X0282566Y0228952D01*
X0282166Y0229078D01*
X0281750Y0229120D01*
X0281334Y0229078D01*
X0280934Y0228952D01*
X0280569Y0228748D01*
X0280018Y0229563D01*
X0280554Y0229862D01*
X0281139Y0230047D01*
X0281750Y0230109D01*
X0281066Y0230024D02*
X0282434Y0230024D01*
X0283007Y0229828D02*
X0280493Y0229828D01*
X0280143Y0229633D02*
X0283357Y0229633D01*
X0283397Y0229437D02*
X0280103Y0229437D01*
X0280235Y0229242D02*
X0283265Y0229242D01*
X0283133Y0229047D02*
X0282265Y0229047D01*
X0282746Y0228851D02*
X0283001Y0228851D01*
X0283502Y0228177D02*
X0284317Y0228728D01*
X0284616Y0228192D01*
X0284801Y0227607D01*
X0284863Y0226996D01*
X0284801Y0226385D01*
X0284616Y0225800D01*
X0284317Y0225264D01*
X0283502Y0225815D01*
X0283706Y0226180D01*
X0283832Y0226580D01*
X0283874Y0226996D01*
X0283832Y0227412D01*
X0283706Y0227812D01*
X0283502Y0228177D01*
X0283562Y0228070D02*
X0284655Y0228070D01*
X0284716Y0227875D02*
X0283671Y0227875D01*
X0283748Y0227679D02*
X0284778Y0227679D01*
X0284813Y0227484D02*
X0283809Y0227484D01*
X0283845Y0227288D02*
X0284833Y0227288D01*
X0284853Y0227093D02*
X0283864Y0227093D01*
X0283864Y0226898D02*
X0284853Y0226898D01*
X0284833Y0226702D02*
X0283844Y0226702D01*
X0283809Y0226507D02*
X0284813Y0226507D01*
X0284778Y0226312D02*
X0283747Y0226312D01*
X0283670Y0226116D02*
X0284716Y0226116D01*
X0284654Y0225921D02*
X0283561Y0225921D01*
X0283634Y0225726D02*
X0284575Y0225726D01*
X0284466Y0225530D02*
X0283923Y0225530D01*
X0284212Y0225335D02*
X0284357Y0225335D01*
X0283398Y0224553D02*
X0280102Y0224553D01*
X0283398Y0224553D01*
X0280102Y0224553D01*
X0283398Y0224553D01*
X0280102Y0224553D01*
X0283398Y0224553D01*
X0280102Y0224553D01*
X0280018Y0224429D02*
X0280569Y0225244D01*
X0280934Y0225040D01*
X0281334Y0224914D01*
X0281750Y0224872D01*
X0282166Y0224914D01*
X0282566Y0225040D01*
X0282931Y0225244D01*
X0283482Y0224429D01*
X0282946Y0224130D01*
X0282361Y0223945D01*
X0281750Y0223883D01*
X0281139Y0223945D01*
X0280554Y0224130D01*
X0280018Y0224429D01*
X0280569Y0225244D01*
X0280934Y0225040D01*
X0281334Y0224914D01*
X0281750Y0224872D01*
X0282166Y0224914D01*
X0282566Y0225040D01*
X0282931Y0225244D01*
X0283482Y0224429D01*
X0282946Y0224130D01*
X0282361Y0223945D01*
X0281750Y0223883D01*
X0281139Y0223945D01*
X0280554Y0224130D01*
X0280018Y0224429D01*
X0280569Y0225244D01*
X0280934Y0225040D01*
X0281334Y0224914D01*
X0281750Y0224872D01*
X0282166Y0224914D01*
X0282566Y0225040D01*
X0282931Y0225244D01*
X0283482Y0224429D01*
X0282946Y0224130D01*
X0282361Y0223945D01*
X0281750Y0223883D01*
X0281139Y0223945D01*
X0280554Y0224130D01*
X0280018Y0224429D01*
X0280569Y0225244D01*
X0280934Y0225040D01*
X0281334Y0224914D01*
X0281750Y0224872D01*
X0282166Y0224914D01*
X0282566Y0225040D01*
X0282931Y0225244D01*
X0283482Y0224429D01*
X0282946Y0224130D01*
X0282361Y0223945D01*
X0281750Y0223883D01*
X0281139Y0223945D01*
X0280554Y0224130D01*
X0280018Y0224429D01*
X0280569Y0225244D01*
X0280934Y0225040D01*
X0281334Y0224914D01*
X0281750Y0224872D01*
X0282166Y0224914D01*
X0282566Y0225040D01*
X0282931Y0225244D01*
X0283482Y0224429D01*
X0282946Y0224130D01*
X0282361Y0223945D01*
X0281750Y0223883D01*
X0281139Y0223945D01*
X0280554Y0224130D01*
X0280018Y0224429D01*
X0280569Y0225244D01*
X0280934Y0225040D01*
X0281334Y0224914D01*
X0281750Y0224872D01*
X0282166Y0224914D01*
X0282566Y0225040D01*
X0282931Y0225244D01*
X0283482Y0224429D01*
X0282946Y0224130D01*
X0282361Y0223945D01*
X0281750Y0223883D01*
X0281139Y0223945D01*
X0280554Y0224130D01*
X0280018Y0224429D01*
X0280569Y0225244D01*
X0280934Y0225040D01*
X0281334Y0224914D01*
X0281750Y0224872D01*
X0282166Y0224914D01*
X0282566Y0225040D01*
X0282931Y0225244D01*
X0283482Y0224429D01*
X0282946Y0224130D01*
X0282361Y0223945D01*
X0281750Y0223883D01*
X0281139Y0223945D01*
X0280554Y0224130D01*
X0280018Y0224429D01*
X0280145Y0224358D02*
X0283355Y0224358D01*
X0280145Y0224358D01*
X0283355Y0224358D01*
X0280145Y0224358D01*
X0283355Y0224358D01*
X0280145Y0224358D01*
X0283355Y0224358D01*
X0283266Y0224749D02*
X0280234Y0224749D01*
X0283266Y0224749D01*
X0280234Y0224749D01*
X0283266Y0224749D01*
X0280234Y0224749D01*
X0283266Y0224749D01*
X0280234Y0224749D01*
X0280366Y0224944D02*
X0281239Y0224944D01*
X0280366Y0224944D01*
X0281239Y0224944D01*
X0280366Y0224944D01*
X0281239Y0224944D01*
X0280366Y0224944D01*
X0281239Y0224944D01*
X0280756Y0225140D02*
X0280498Y0225140D01*
X0280756Y0225140D01*
X0280498Y0225140D01*
X0280756Y0225140D01*
X0280498Y0225140D01*
X0280756Y0225140D01*
X0280498Y0225140D01*
X0279998Y0225815D02*
X0279183Y0225264D01*
X0278884Y0225800D01*
X0278699Y0226385D01*
X0278637Y0226996D01*
X0278699Y0227607D01*
X0278884Y0228192D01*
X0279183Y0228728D01*
X0279998Y0228177D01*
X0279794Y0227812D01*
X0279668Y0227412D01*
X0279626Y0226996D01*
X0279668Y0226580D01*
X0279794Y0226180D01*
X0279998Y0225815D01*
X0279939Y0225921D02*
X0278846Y0225921D01*
X0278784Y0226116D02*
X0279830Y0226116D01*
X0279753Y0226312D02*
X0278723Y0226312D01*
X0278687Y0226507D02*
X0279691Y0226507D01*
X0279656Y0226702D02*
X0278667Y0226702D01*
X0278647Y0226898D02*
X0279636Y0226898D01*
X0279636Y0227093D02*
X0278647Y0227093D01*
X0278667Y0227288D02*
X0279656Y0227288D01*
X0279691Y0227484D02*
X0278687Y0227484D01*
X0278722Y0227679D02*
X0279752Y0227679D01*
X0279829Y0227875D02*
X0278784Y0227875D01*
X0278845Y0228070D02*
X0279938Y0228070D01*
X0279868Y0228265D02*
X0278925Y0228265D01*
X0279034Y0228461D02*
X0279579Y0228461D01*
X0279290Y0228656D02*
X0279143Y0228656D01*
X0280367Y0229047D02*
X0281235Y0229047D01*
X0280754Y0228851D02*
X0280499Y0228851D01*
X0283632Y0228265D02*
X0284575Y0228265D01*
X0284466Y0228461D02*
X0283921Y0228461D01*
X0284210Y0228656D02*
X0284357Y0228656D01*
X0283002Y0225140D02*
X0282744Y0225140D01*
X0283002Y0225140D01*
X0282744Y0225140D01*
X0283002Y0225140D01*
X0282744Y0225140D01*
X0283002Y0225140D01*
X0282744Y0225140D01*
X0283134Y0224944D02*
X0282261Y0224944D01*
X0283134Y0224944D01*
X0282261Y0224944D01*
X0283134Y0224944D01*
X0282261Y0224944D01*
X0283134Y0224944D01*
X0282261Y0224944D01*
X0282430Y0223967D02*
X0281070Y0223967D01*
X0282430Y0223967D01*
X0281070Y0223967D01*
X0282430Y0223967D01*
X0281070Y0223967D01*
X0282430Y0223967D01*
X0281070Y0223967D01*
X0280495Y0224163D02*
X0283005Y0224163D01*
X0280495Y0224163D01*
X0283005Y0224163D01*
X0280495Y0224163D01*
X0283005Y0224163D01*
X0280495Y0224163D01*
X0283005Y0224163D01*
X0279866Y0225726D02*
X0278925Y0225726D01*
X0279034Y0225530D02*
X0279577Y0225530D01*
X0279288Y0225335D02*
X0279143Y0225335D01*
X0281750Y0148109D02*
X0282361Y0148047D01*
X0282946Y0147862D01*
X0283482Y0147563D01*
X0282931Y0146748D01*
X0282566Y0146952D01*
X0282166Y0147078D01*
X0281750Y0147120D01*
X0281334Y0147078D01*
X0280934Y0146952D01*
X0280569Y0146748D01*
X0280018Y0147563D01*
X0280554Y0147862D01*
X0281139Y0148047D01*
X0281750Y0148109D01*
X0280901Y0147972D02*
X0282599Y0147972D01*
X0283100Y0147776D02*
X0280400Y0147776D01*
X0280050Y0147581D02*
X0283450Y0147581D01*
X0283362Y0147386D02*
X0280138Y0147386D01*
X0280270Y0147190D02*
X0283230Y0147190D01*
X0283098Y0146995D02*
X0282430Y0146995D01*
X0282839Y0146799D02*
X0282966Y0146799D01*
X0283502Y0146177D02*
X0284317Y0146728D01*
X0284616Y0146192D01*
X0284801Y0145607D01*
X0284863Y0144996D01*
X0284801Y0144385D01*
X0284616Y0143800D01*
X0284317Y0143264D01*
X0283502Y0143815D01*
X0283706Y0144180D01*
X0283832Y0144580D01*
X0283874Y0144996D01*
X0283832Y0145412D01*
X0283706Y0145812D01*
X0283502Y0146177D01*
X0283555Y0146213D02*
X0284604Y0146213D01*
X0284671Y0146018D02*
X0283591Y0146018D01*
X0283700Y0145823D02*
X0284733Y0145823D01*
X0284794Y0145627D02*
X0283764Y0145627D01*
X0283826Y0145432D02*
X0284819Y0145432D01*
X0284839Y0145237D02*
X0283850Y0145237D01*
X0283870Y0145041D02*
X0284859Y0145041D01*
X0284848Y0144846D02*
X0283859Y0144846D01*
X0283839Y0144650D02*
X0284828Y0144650D01*
X0284808Y0144455D02*
X0283793Y0144455D01*
X0283731Y0144260D02*
X0284761Y0144260D01*
X0284700Y0144064D02*
X0283641Y0144064D01*
X0283532Y0143869D02*
X0284638Y0143869D01*
X0284546Y0143674D02*
X0283711Y0143674D01*
X0284000Y0143478D02*
X0284437Y0143478D01*
X0284328Y0143283D02*
X0284289Y0143283D01*
X0283301Y0142697D02*
X0280199Y0142697D01*
X0283301Y0142697D01*
X0280199Y0142697D01*
X0283301Y0142697D01*
X0280199Y0142697D01*
X0283301Y0142697D01*
X0280199Y0142697D01*
X0280331Y0142892D02*
X0281549Y0142892D01*
X0280331Y0142892D01*
X0281549Y0142892D01*
X0280331Y0142892D01*
X0281549Y0142892D01*
X0280331Y0142892D01*
X0281549Y0142892D01*
X0281750Y0142872D02*
X0282166Y0142914D01*
X0282566Y0143040D01*
X0282931Y0143244D01*
X0283482Y0142429D01*
X0282946Y0142130D01*
X0282361Y0141945D01*
X0281750Y0141883D01*
X0281139Y0141945D01*
X0280554Y0142130D01*
X0280018Y0142429D01*
X0280569Y0143244D01*
X0280934Y0143040D01*
X0281334Y0142914D01*
X0281750Y0142872D01*
X0282166Y0142914D01*
X0282566Y0143040D01*
X0282931Y0143244D01*
X0283482Y0142429D01*
X0282946Y0142130D01*
X0282361Y0141945D01*
X0281750Y0141883D01*
X0281139Y0141945D01*
X0280554Y0142130D01*
X0280018Y0142429D01*
X0280569Y0143244D01*
X0280934Y0143040D01*
X0281334Y0142914D01*
X0281750Y0142872D01*
X0282166Y0142914D01*
X0282566Y0143040D01*
X0282931Y0143244D01*
X0283482Y0142429D01*
X0282946Y0142130D01*
X0282361Y0141945D01*
X0281750Y0141883D01*
X0281139Y0141945D01*
X0280554Y0142130D01*
X0280018Y0142429D01*
X0280569Y0143244D01*
X0280934Y0143040D01*
X0281334Y0142914D01*
X0281750Y0142872D01*
X0282166Y0142914D01*
X0282566Y0143040D01*
X0282931Y0143244D01*
X0283482Y0142429D01*
X0282946Y0142130D01*
X0282361Y0141945D01*
X0281750Y0141883D01*
X0281139Y0141945D01*
X0280554Y0142130D01*
X0280018Y0142429D01*
X0280569Y0143244D01*
X0280934Y0143040D01*
X0281334Y0142914D01*
X0281750Y0142872D01*
X0282166Y0142914D01*
X0282566Y0143040D01*
X0282931Y0143244D01*
X0283482Y0142429D01*
X0282946Y0142130D01*
X0282361Y0141945D01*
X0281750Y0141883D01*
X0281139Y0141945D01*
X0280554Y0142130D01*
X0280018Y0142429D01*
X0280569Y0143244D01*
X0280934Y0143040D01*
X0281334Y0142914D01*
X0281750Y0142872D01*
X0282166Y0142914D01*
X0282566Y0143040D01*
X0282931Y0143244D01*
X0283482Y0142429D01*
X0282946Y0142130D01*
X0282361Y0141945D01*
X0281750Y0141883D01*
X0281139Y0141945D01*
X0280554Y0142130D01*
X0280018Y0142429D01*
X0280569Y0143244D01*
X0280934Y0143040D01*
X0281334Y0142914D01*
X0281750Y0142872D01*
X0282166Y0142914D01*
X0282566Y0143040D01*
X0282931Y0143244D01*
X0283482Y0142429D01*
X0282946Y0142130D01*
X0282361Y0141945D01*
X0281750Y0141883D01*
X0281139Y0141945D01*
X0280554Y0142130D01*
X0280018Y0142429D01*
X0280569Y0143244D01*
X0280934Y0143040D01*
X0281334Y0142914D01*
X0281750Y0142872D01*
X0281951Y0142892D02*
X0283169Y0142892D01*
X0281951Y0142892D01*
X0283169Y0142892D01*
X0281951Y0142892D01*
X0283169Y0142892D01*
X0281951Y0142892D01*
X0283169Y0142892D01*
X0283037Y0143088D02*
X0282651Y0143088D01*
X0283037Y0143088D01*
X0282651Y0143088D01*
X0283037Y0143088D01*
X0282651Y0143088D01*
X0283037Y0143088D01*
X0282651Y0143088D01*
X0283433Y0142502D02*
X0280067Y0142502D01*
X0283433Y0142502D01*
X0280067Y0142502D01*
X0283433Y0142502D01*
X0280067Y0142502D01*
X0283433Y0142502D01*
X0280067Y0142502D01*
X0280238Y0142306D02*
X0283262Y0142306D01*
X0280238Y0142306D01*
X0283262Y0142306D01*
X0280238Y0142306D01*
X0283262Y0142306D01*
X0280238Y0142306D01*
X0283262Y0142306D01*
X0282885Y0142111D02*
X0280615Y0142111D01*
X0282885Y0142111D01*
X0280615Y0142111D01*
X0282885Y0142111D01*
X0280615Y0142111D01*
X0282885Y0142111D01*
X0280615Y0142111D01*
X0281432Y0141915D02*
X0282068Y0141915D01*
X0281432Y0141915D01*
X0282068Y0141915D01*
X0281432Y0141915D01*
X0282068Y0141915D01*
X0281432Y0141915D01*
X0282068Y0141915D01*
X0280849Y0143088D02*
X0280463Y0143088D01*
X0280849Y0143088D01*
X0280463Y0143088D01*
X0280849Y0143088D01*
X0280463Y0143088D01*
X0280849Y0143088D01*
X0280463Y0143088D01*
X0279998Y0143815D02*
X0279183Y0143264D01*
X0278884Y0143800D01*
X0278699Y0144385D01*
X0278637Y0144996D01*
X0278699Y0145607D01*
X0278884Y0146192D01*
X0279183Y0146728D01*
X0279998Y0146177D01*
X0279794Y0145812D01*
X0279668Y0145412D01*
X0279626Y0144996D01*
X0279668Y0144580D01*
X0279794Y0144180D01*
X0279998Y0143815D01*
X0279968Y0143869D02*
X0278862Y0143869D01*
X0278800Y0144064D02*
X0279859Y0144064D01*
X0279769Y0144260D02*
X0278739Y0144260D01*
X0278692Y0144455D02*
X0279707Y0144455D01*
X0279661Y0144650D02*
X0278672Y0144650D01*
X0278652Y0144846D02*
X0279641Y0144846D01*
X0279630Y0145041D02*
X0278641Y0145041D01*
X0278661Y0145237D02*
X0279650Y0145237D01*
X0279674Y0145432D02*
X0278681Y0145432D01*
X0278706Y0145627D02*
X0279736Y0145627D01*
X0279800Y0145823D02*
X0278767Y0145823D01*
X0278829Y0146018D02*
X0279909Y0146018D01*
X0279944Y0146213D02*
X0278896Y0146213D01*
X0279005Y0146409D02*
X0279656Y0146409D01*
X0279367Y0146604D02*
X0279114Y0146604D01*
X0280402Y0146995D02*
X0281070Y0146995D01*
X0280661Y0146799D02*
X0280534Y0146799D01*
X0279789Y0143674D02*
X0278954Y0143674D01*
X0279063Y0143478D02*
X0279500Y0143478D01*
X0279211Y0143283D02*
X0279172Y0143283D01*
X0283844Y0146409D02*
X0284495Y0146409D01*
X0284386Y0146604D02*
X0284133Y0146604D01*
X0281750Y0066109D02*
X0282361Y0066047D01*
X0282946Y0065862D01*
X0283482Y0065563D01*
X0282931Y0064748D01*
X0282566Y0064952D01*
X0282166Y0065078D01*
X0281750Y0065120D01*
X0281334Y0065078D01*
X0280934Y0064952D01*
X0280569Y0064748D01*
X0280018Y0065563D01*
X0280554Y0065862D01*
X0281139Y0066047D01*
X0281750Y0066109D01*
X0280736Y0065920D02*
X0282764Y0065920D01*
X0283193Y0065724D02*
X0280307Y0065724D01*
X0280041Y0065529D02*
X0283459Y0065529D01*
X0283327Y0065334D02*
X0280173Y0065334D01*
X0280305Y0065138D02*
X0283195Y0065138D01*
X0283063Y0064943D02*
X0282582Y0064943D01*
X0283502Y0064177D02*
X0284317Y0064728D01*
X0284616Y0064192D01*
X0284801Y0063607D01*
X0284863Y0062996D01*
X0284801Y0062385D01*
X0284616Y0061800D01*
X0284317Y0061264D01*
X0283502Y0061815D01*
X0283706Y0062180D01*
X0283832Y0062580D01*
X0283874Y0062996D01*
X0283832Y0063412D01*
X0283706Y0063812D01*
X0283502Y0064177D01*
X0283511Y0064161D02*
X0284626Y0064161D01*
X0284687Y0063966D02*
X0283620Y0063966D01*
X0283719Y0063771D02*
X0284749Y0063771D01*
X0284804Y0063575D02*
X0283780Y0063575D01*
X0283835Y0063380D02*
X0284824Y0063380D01*
X0284844Y0063185D02*
X0283855Y0063185D01*
X0283874Y0062989D02*
X0284862Y0062989D01*
X0284842Y0062794D02*
X0283854Y0062794D01*
X0283834Y0062599D02*
X0284823Y0062599D01*
X0284803Y0062403D02*
X0283776Y0062403D01*
X0283715Y0062208D02*
X0284745Y0062208D01*
X0284683Y0062012D02*
X0283612Y0062012D01*
X0283503Y0061817D02*
X0284622Y0061817D01*
X0284517Y0061622D02*
X0283788Y0061622D01*
X0284077Y0061426D02*
X0284408Y0061426D01*
X0283336Y0060645D02*
X0280164Y0060645D01*
X0283336Y0060645D01*
X0280164Y0060645D01*
X0283336Y0060645D01*
X0280164Y0060645D01*
X0283336Y0060645D01*
X0280164Y0060645D01*
X0280296Y0060840D02*
X0283204Y0060840D01*
X0280296Y0060840D01*
X0283204Y0060840D01*
X0280296Y0060840D01*
X0283204Y0060840D01*
X0280296Y0060840D01*
X0283204Y0060840D01*
X0283072Y0061036D02*
X0282552Y0061036D01*
X0283072Y0061036D01*
X0282552Y0061036D01*
X0283072Y0061036D01*
X0282552Y0061036D01*
X0283072Y0061036D01*
X0282552Y0061036D01*
X0282566Y0061040D02*
X0282931Y0061244D01*
X0283482Y0060429D01*
X0282946Y0060130D01*
X0282361Y0059945D01*
X0281750Y0059883D01*
X0281139Y0059945D01*
X0280554Y0060130D01*
X0280018Y0060429D01*
X0280569Y0061244D01*
X0280934Y0061040D01*
X0281334Y0060914D01*
X0281750Y0060872D01*
X0282166Y0060914D01*
X0282566Y0061040D01*
X0282931Y0061244D01*
X0283482Y0060429D01*
X0282946Y0060130D01*
X0282361Y0059945D01*
X0281750Y0059883D01*
X0281139Y0059945D01*
X0280554Y0060130D01*
X0280018Y0060429D01*
X0280569Y0061244D01*
X0280934Y0061040D01*
X0281334Y0060914D01*
X0281750Y0060872D01*
X0282166Y0060914D01*
X0282566Y0061040D01*
X0282931Y0061244D01*
X0283482Y0060429D01*
X0282946Y0060130D01*
X0282361Y0059945D01*
X0281750Y0059883D01*
X0281139Y0059945D01*
X0280554Y0060130D01*
X0280018Y0060429D01*
X0280569Y0061244D01*
X0280934Y0061040D01*
X0281334Y0060914D01*
X0281750Y0060872D01*
X0282166Y0060914D01*
X0282566Y0061040D01*
X0282931Y0061244D01*
X0283482Y0060429D01*
X0282946Y0060130D01*
X0282361Y0059945D01*
X0281750Y0059883D01*
X0281139Y0059945D01*
X0280554Y0060130D01*
X0280018Y0060429D01*
X0280569Y0061244D01*
X0280934Y0061040D01*
X0281334Y0060914D01*
X0281750Y0060872D01*
X0282166Y0060914D01*
X0282566Y0061040D01*
X0282931Y0061244D01*
X0283482Y0060429D01*
X0282946Y0060130D01*
X0282361Y0059945D01*
X0281750Y0059883D01*
X0281139Y0059945D01*
X0280554Y0060130D01*
X0280018Y0060429D01*
X0280569Y0061244D01*
X0280934Y0061040D01*
X0281334Y0060914D01*
X0281750Y0060872D01*
X0282166Y0060914D01*
X0282566Y0061040D01*
X0282931Y0061244D01*
X0283482Y0060429D01*
X0282946Y0060130D01*
X0282361Y0059945D01*
X0281750Y0059883D01*
X0281139Y0059945D01*
X0280554Y0060130D01*
X0280018Y0060429D01*
X0280569Y0061244D01*
X0280934Y0061040D01*
X0281334Y0060914D01*
X0281750Y0060872D01*
X0282166Y0060914D01*
X0282566Y0061040D01*
X0282931Y0061244D01*
X0283482Y0060429D01*
X0282946Y0060130D01*
X0282361Y0059945D01*
X0281750Y0059883D01*
X0281139Y0059945D01*
X0280554Y0060130D01*
X0280018Y0060429D01*
X0280569Y0061244D01*
X0280934Y0061040D01*
X0281334Y0060914D01*
X0281750Y0060872D01*
X0282166Y0060914D01*
X0282566Y0061040D01*
X0282908Y0061231D02*
X0282940Y0061231D01*
X0282908Y0061231D01*
X0282940Y0061231D01*
X0282908Y0061231D01*
X0282940Y0061231D01*
X0282908Y0061231D01*
X0282940Y0061231D01*
X0283468Y0060450D02*
X0280032Y0060450D01*
X0283468Y0060450D01*
X0280032Y0060450D01*
X0283468Y0060450D01*
X0280032Y0060450D01*
X0283468Y0060450D01*
X0280032Y0060450D01*
X0280331Y0060254D02*
X0283169Y0060254D01*
X0280331Y0060254D01*
X0283169Y0060254D01*
X0280331Y0060254D01*
X0283169Y0060254D01*
X0280331Y0060254D01*
X0283169Y0060254D01*
X0282721Y0060059D02*
X0280779Y0060059D01*
X0282721Y0060059D01*
X0280779Y0060059D01*
X0282721Y0060059D01*
X0280779Y0060059D01*
X0282721Y0060059D01*
X0280779Y0060059D01*
X0280948Y0061036D02*
X0280428Y0061036D01*
X0280948Y0061036D01*
X0280428Y0061036D01*
X0280948Y0061036D01*
X0280428Y0061036D01*
X0280948Y0061036D01*
X0280428Y0061036D01*
X0280560Y0061231D02*
X0280592Y0061231D01*
X0280560Y0061231D01*
X0280592Y0061231D01*
X0280560Y0061231D01*
X0280592Y0061231D01*
X0280560Y0061231D01*
X0280592Y0061231D01*
X0279998Y0061815D02*
X0279183Y0061264D01*
X0278884Y0061800D01*
X0278699Y0062385D01*
X0278637Y0062996D01*
X0278699Y0063607D01*
X0278884Y0064192D01*
X0279183Y0064728D01*
X0279998Y0064177D01*
X0279794Y0063812D01*
X0279668Y0063412D01*
X0279626Y0062996D01*
X0279668Y0062580D01*
X0279794Y0062180D01*
X0279998Y0061815D01*
X0279997Y0061817D02*
X0278878Y0061817D01*
X0278817Y0062012D02*
X0279888Y0062012D01*
X0279785Y0062208D02*
X0278755Y0062208D01*
X0278697Y0062403D02*
X0279724Y0062403D01*
X0279666Y0062599D02*
X0278677Y0062599D01*
X0278658Y0062794D02*
X0279646Y0062794D01*
X0279626Y0062989D02*
X0278638Y0062989D01*
X0278656Y0063185D02*
X0279645Y0063185D01*
X0279665Y0063380D02*
X0278676Y0063380D01*
X0278696Y0063575D02*
X0279720Y0063575D01*
X0279781Y0063771D02*
X0278751Y0063771D01*
X0278813Y0063966D02*
X0279880Y0063966D01*
X0279989Y0064161D02*
X0278874Y0064161D01*
X0278976Y0064357D02*
X0279732Y0064357D01*
X0279444Y0064552D02*
X0279085Y0064552D01*
X0280437Y0064943D02*
X0280918Y0064943D01*
X0283768Y0064357D02*
X0284524Y0064357D01*
X0284415Y0064552D02*
X0284056Y0064552D01*
X0279712Y0061622D02*
X0278983Y0061622D01*
X0279092Y0061426D02*
X0279424Y0061426D01*
D20*
X0279191Y0062996D03*
X0284309Y0062996D03*
X0284309Y0144996D03*
X0279191Y0144996D03*
X0279191Y0226996D03*
X0284309Y0226996D03*
X0284309Y0308996D03*
X0279191Y0308996D03*
X0094309Y0308996D03*
X0089191Y0308996D03*
X0089191Y0226996D03*
X0094309Y0226996D03*
X0094309Y0144996D03*
X0089191Y0144996D03*
X0089191Y0062996D03*
X0094309Y0062996D03*
M02*
